# WaveFront *.obj file (generated by Autodesk ATF)

mtllib labirinto.mtl

g Corpo1

v 0.050000 -0.800000 0.550000
v 0.050000 -0.798951 0.580709
v 0.050000 -0.795809 0.611275
v 0.050000 -0.790588 0.641555
v 0.050000 -0.783313 0.671409
v 0.050000 -0.774017 0.700696
v 0.050000 -0.762745 0.729280
v 0.050000 -0.749548 0.757029
v 0.050000 -0.734489 0.783813
v 0.050000 -0.717636 0.809506
v 0.050000 -0.699070 0.833990
v 0.050000 -0.678876 0.857149
v 0.050000 -0.657149 0.878876
v 0.050000 -0.633990 0.899070
v 0.050000 -0.609506 0.917636
v 0.050000 -0.583813 0.934489
v 0.050000 -0.557029 0.949548
v 0.050000 -0.529280 0.962745
v 0.050000 -0.500696 0.974017
v 0.050000 -0.471409 0.983313
v 0.050000 -0.441555 0.990588
v 0.050000 -0.411275 0.995809
v 0.050000 -0.380709 0.998951
v 0.050000 -0.350000 1.000000
v -0.050000 -0.350000 1.000000
v -0.050000 -0.380709 0.998951
v -0.050000 -0.411275 0.995809
v -0.050000 -0.441555 0.990588
v -0.050000 -0.471409 0.983313
v -0.050000 -0.500696 0.974017
v -0.050000 -0.529280 0.962745
v -0.050000 -0.557029 0.949548
v -0.050000 -0.583813 0.934489
v -0.050000 -0.609506 0.917636
v -0.050000 -0.633990 0.899070
v -0.050000 -0.657149 0.878876
v -0.050000 -0.678876 0.857149
v -0.050000 -0.699070 0.833990
v -0.050000 -0.717636 0.809506
v -0.050000 -0.734489 0.783813
v -0.050000 -0.749548 0.757029
v -0.050000 -0.762745 0.729280
v -0.050000 -0.774017 0.700696
v -0.050000 -0.783313 0.671409
v -0.050000 -0.790588 0.641555
v -0.050000 -0.795809 0.611275
v -0.050000 -0.798951 0.580709
v -0.050000 -0.800000 0.550000
v 0.050000 -0.800000 0.000000
v 0.050000 0.100000 0.000000
v 0.050000 0.100000 1.000000
v -0.050000 -0.800000 0.000000
v 0.950000 0.200000 0.550000
v 0.948951 0.200000 0.580709
v 0.945809 0.200000 0.611275
v 0.940588 0.200000 0.641555
v 0.933313 0.200000 0.671409
v 0.924017 0.200000 0.700696
v 0.912745 0.200000 0.729280
v 0.899548 0.200000 0.757029
v 0.884489 0.200000 0.783813
v 0.867636 0.200000 0.809506
v 0.849070 0.200000 0.833990
v 0.828876 0.200000 0.857149
v 0.807149 0.200000 0.878876
v 0.783990 0.200000 0.899070
v 0.759506 0.200000 0.917636
v 0.733813 0.200000 0.934489
v 0.707029 0.200000 0.949548
v 0.679280 0.200000 0.962745
v 0.650696 0.200000 0.974017
v 0.621409 0.200000 0.983313
v 0.591555 0.200000 0.990588
v 0.561275 0.200000 0.995809
v 0.530709 0.200000 0.998951
v 0.500000 0.200000 1.000000
v 0.500000 0.100000 1.000000
v 0.530709 0.100000 0.998951
v 0.561275 0.100000 0.995809
v 0.591555 0.100000 0.990588
v 0.621409 0.100000 0.983313
v 0.650696 0.100000 0.974017
v 0.679280 0.100000 0.962745
v 0.707029 0.100000 0.949548
v 0.733813 0.100000 0.934489
v 0.759506 0.100000 0.917636
v 0.783990 0.100000 0.899070
v 0.807149 0.100000 0.878876
v 0.828876 0.100000 0.857149
v 0.849070 0.100000 0.833990
v 0.867636 0.100000 0.809506
v 0.884489 0.100000 0.783813
v 0.899548 0.100000 0.757029
v 0.912745 0.100000 0.729280
v 0.924017 0.100000 0.700696
v 0.933313 0.100000 0.671409
v 0.940588 0.100000 0.641555
v 0.945809 0.100000 0.611275
v 0.948951 0.100000 0.580709
v 0.950000 0.100000 0.550000
v -0.050000 0.200000 1.000000
v 0.950000 0.200000 0.000000
v -0.050000 0.200000 0.000000
v 0.950000 0.100000 0.000000
vt 25.000000 35.342917 0.000000
vt 15.000000 35.342917 0.000000
vt 25.000000 32.269620 0.000000
vt 15.000000 32.269620 0.000000
vt 25.000000 29.196323 0.000000
vt 15.000000 29.196323 0.000000
vt 25.000000 26.123026 0.000000
vt 15.000000 26.123026 0.000000
vt 25.000000 23.049729 0.000000
vt 15.000000 23.049729 0.000000
vt 25.000000 19.976432 0.000000
vt 15.000000 19.976432 0.000000
vt 25.000000 16.903134 0.000000
vt 15.000000 16.903134 0.000000
vt 25.000000 13.829837 0.000000
vt 15.000000 13.829837 0.000000
vt 25.000000 10.756540 0.000000
vt 15.000000 10.756540 0.000000
vt 25.000000 7.683243 0.000000
vt 15.000000 7.683243 0.000000
vt 25.000000 4.609946 0.000000
vt 15.000000 4.609946 0.000000
vt 25.000000 1.536649 0.000000
vt 15.000000 1.536649 0.000000
vt 25.000000 -1.536649 0.000000
vt 15.000000 -1.536649 0.000000
vt 25.000000 -4.609946 0.000000
vt 15.000000 -4.609946 0.000000
vt 25.000000 -7.683243 0.000000
vt 15.000000 -7.683243 0.000000
vt 25.000000 -10.756540 0.000000
vt 15.000000 -10.756540 0.000000
vt 25.000000 -13.829837 0.000000
vt 15.000000 -13.829837 0.000000
vt 25.000000 -16.903134 0.000000
vt 15.000000 -16.903134 0.000000
vt 25.000000 -19.976432 0.000000
vt 15.000000 -19.976432 0.000000
vt 25.000000 -23.049729 0.000000
vt 15.000000 -23.049729 0.000000
vt 25.000000 -26.123026 0.000000
vt 15.000000 -26.123026 0.000000
vt 25.000000 -29.196323 0.000000
vt 15.000000 -29.196323 0.000000
vt 25.000000 -32.269620 0.000000
vt 15.000000 -32.269620 0.000000
vt 25.000000 -35.342917 0.000000
vt 15.000000 -35.342917 0.000000
vt 41.929091 99.895095 0.000000
vt 0.000000 55.000000 0.000000
vt 45.000000 100.000000 0.000000
vt 90.000000 0.000000 0.000000
vt 90.000000 100.000000 0.000000
vt 38.872501 99.580868 0.000000
vt 35.844479 99.058784 0.000000
vt 32.859145 98.331278 0.000000
vt 29.930417 97.401741 0.000000
vt 27.071951 96.274509 0.000000
vt 24.297073 94.954835 0.000000
vt 21.618722 93.448873 0.000000
vt 19.049386 91.763645 0.000000
vt 16.601043 89.907008 0.000000
vt 14.285109 87.887618 0.000000
vt 12.112382 85.714891 0.000000
vt 10.092992 83.398957 0.000000
vt 8.236355 80.950614 0.000000
vt 6.551127 78.381278 0.000000
vt 5.045165 75.702927 0.000000
vt 3.725491 72.928049 0.000000
vt 2.598259 70.069583 0.000000
vt 1.668722 67.140855 0.000000
vt 0.941216 64.155521 0.000000
vt 0.419132 61.127499 0.000000
vt 0.104905 58.070909 0.000000
vt 0.000000 0.000000 0.000000
vt 10.000000 55.000000 0.000000
vt 0.000000 55.000000 0.000000
vt 10.000000 0.000000 0.000000
vt 0.000000 0.000000 0.000000
vt -20.000000 35.342917 0.000000
vt -30.000000 35.342917 0.000000
vt -20.000000 32.269620 0.000000
vt -30.000000 32.269620 0.000000
vt -20.000000 29.196323 0.000000
vt -30.000000 29.196323 0.000000
vt -20.000000 26.123026 0.000000
vt -30.000000 26.123026 0.000000
vt -20.000000 23.049729 0.000000
vt -30.000000 23.049729 0.000000
vt -20.000000 19.976432 0.000000
vt -30.000000 19.976432 0.000000
vt -20.000000 16.903134 0.000000
vt -30.000000 16.903134 0.000000
vt -20.000000 13.829837 0.000000
vt -30.000000 13.829837 0.000000
vt -20.000000 10.756540 0.000000
vt -30.000000 10.756540 0.000000
vt -20.000000 7.683243 0.000000
vt -30.000000 7.683243 0.000000
vt -20.000000 4.609946 0.000000
vt -30.000000 4.609946 0.000000
vt -20.000000 1.536649 0.000000
vt -30.000000 1.536649 0.000000
vt -20.000000 -1.536649 0.000000
vt -30.000000 -1.536649 0.000000
vt -20.000000 -4.609946 0.000000
vt -30.000000 -4.609946 0.000000
vt -20.000000 -7.683243 0.000000
vt -30.000000 -7.683243 0.000000
vt -20.000000 -10.756540 0.000000
vt -30.000000 -10.756540 0.000000
vt -20.000000 -13.829837 0.000000
vt -30.000000 -13.829837 0.000000
vt -20.000000 -16.903134 0.000000
vt -30.000000 -16.903134 0.000000
vt -20.000000 -19.976432 0.000000
vt -30.000000 -19.976432 0.000000
vt -20.000000 -23.049729 0.000000
vt -30.000000 -23.049729 0.000000
vt -20.000000 -26.123026 0.000000
vt -30.000000 -26.123026 0.000000
vt -20.000000 -29.196323 0.000000
vt -30.000000 -29.196323 0.000000
vt -20.000000 -32.269620 0.000000
vt -30.000000 -32.269620 0.000000
vt -20.000000 -35.342917 0.000000
vt -30.000000 -35.342917 0.000000
vt -40.000000 -5.000000 0.000000
vt -40.000000 40.000000 0.000000
vt -50.000000 -5.000000 0.000000
vt -50.000000 50.000000 0.000000
vt 5.000000 50.000000 0.000000
vt 5.000000 40.000000 0.000000
vt 100.000000 100.000000 0.000000
vt 45.000000 100.000000 0.000000
vt 100.000000 0.000000 0.000000
vt 41.929091 99.895095 0.000000
vt 38.872501 99.580868 0.000000
vt 35.844479 99.058784 0.000000
vt 32.859145 98.331278 0.000000
vt 29.930417 97.401741 0.000000
vt 27.071951 96.274509 0.000000
vt 24.297073 94.954835 0.000000
vt 21.618722 93.448873 0.000000
vt 19.049386 91.763645 0.000000
vt 16.601043 89.907008 0.000000
vt 14.285109 87.887618 0.000000
vt 12.112382 85.714891 0.000000
vt 10.092992 83.398957 0.000000
vt 8.236355 80.950614 0.000000
vt 6.551127 78.381278 0.000000
vt 5.045165 75.702927 0.000000
vt 3.725491 72.928049 0.000000
vt 2.598259 70.069583 0.000000
vt 1.668722 67.140855 0.000000
vt 0.941216 64.155521 0.000000
vt 0.419132 61.127499 0.000000
vt 0.104905 58.070909 0.000000
vt -0.000000 55.000000 0.000000
vt -0.000000 0.000000 0.000000
vt 100.000000 0.000000 0.000000
vt 100.000000 55.000000 0.000000
vt -0.000000 0.000000 0.000000
vt 99.895095 58.070909 0.000000
vt 99.580868 61.127499 0.000000
vt 99.058784 64.155521 0.000000
vt 98.331278 67.140855 0.000000
vt 97.401741 70.069583 0.000000
vt 96.274509 72.928049 0.000000
vt 94.954835 75.702927 0.000000
vt 93.448873 78.381278 0.000000
vt 91.763645 80.950614 0.000000
vt 89.907008 83.398957 0.000000
vt 87.887618 85.714891 0.000000
vt 85.714891 87.887618 0.000000
vt 83.398957 89.907008 0.000000
vt 80.950614 91.763645 0.000000
vt 78.381278 93.448873 0.000000
vt 75.702927 94.954835 0.000000
vt 72.928049 96.274509 0.000000
vt 70.069583 97.401741 0.000000
vt 67.140855 98.331278 0.000000
vt 64.155521 99.058784 0.000000
vt 61.127499 99.580868 0.000000
vt 58.070909 99.895095 0.000000
vt 55.000000 100.000000 0.000000
vt -0.000000 100.000000 0.000000
vt 10.000000 55.000000 0.000000
vt 0.000000 55.000000 0.000000
vt 10.000000 0.000000 0.000000
vt 0.000000 0.000000 0.000000
vt 89.895095 58.070909 0.000000
vt 89.580868 61.127499 0.000000
vt 90.000000 55.000000 0.000000
vt 89.058784 64.155521 0.000000
vt 88.331278 67.140855 0.000000
vt 87.401741 70.069583 0.000000
vt 86.274509 72.928049 0.000000
vt 84.954835 75.702927 0.000000
vt 83.448873 78.381278 0.000000
vt 81.763645 80.950614 0.000000
vt 79.907008 83.398957 0.000000
vt 77.887618 85.714891 0.000000
vt 75.714891 87.887618 0.000000
vt 73.398957 89.907008 0.000000
vt 70.950614 91.763645 0.000000
vt 68.381278 93.448873 0.000000
vt 65.702927 94.954835 0.000000
vt 62.928049 96.274509 0.000000
vt 60.069583 97.401741 0.000000
vt 57.140855 98.331278 0.000000
vt 54.155521 99.058784 0.000000
vt 51.127499 99.580868 0.000000
vt 48.070909 99.895095 0.000000
vt 45.000000 100.000000 0.000000
vt 0.000000 0.000000 0.000000
vt 90.000000 0.000000 0.000000
vt 0.000000 100.000000 0.000000
vt 40.000000 -50.000000 0.000000
vt 50.000000 -50.000000 0.000000
vt 40.000000 40.000000 0.000000
vt 50.000000 50.000000 0.000000
vt -50.000000 50.000000 0.000000
vt -50.000000 40.000000 0.000000
vn 0.000000 -100.000000 0.000000
vn 0.000000 -100.000000 0.000000
vn 0.000000 -99.766877 6.824241
vn 0.000000 -99.766877 6.824241
vn 0.000000 -99.068595 13.616665
vn 0.000000 -99.068595 13.616665
vn 0.000000 -97.908409 20.345601
vn 0.000000 -97.908409 20.345601
vn 0.000000 -96.291729 26.979677
vn 0.000000 -96.291729 26.979677
vn 0.000000 -94.226092 33.487961
vn 0.000000 -94.226092 33.487961
vn 0.000000 -91.721130 39.840109
vn 0.000000 -91.721130 39.840109
vn 0.000000 -88.788522 46.006504
vn 0.000000 -88.788522 46.006504
vn 0.000000 -85.441940 51.958395
vn 0.000000 -85.441940 51.958395
vn 0.000000 -81.696989 57.668032
vn 0.000000 -81.696989 57.668032
vn 0.000000 -77.571129 63.108794
vn 0.000000 -77.571129 63.108794
vn 0.000000 -73.083596 68.255314
vn 0.000000 -73.083596 68.255314
vn 0.000000 -68.255314 73.083596
vn 0.000000 -68.255314 73.083596
vn 0.000000 -63.108794 77.571129
vn 0.000000 -63.108794 77.571129
vn 0.000000 -57.668032 81.696989
vn 0.000000 -57.668032 81.696989
vn 0.000000 -51.958395 85.441940
vn 0.000000 -51.958395 85.441940
vn 0.000000 -46.006504 88.788522
vn 0.000000 -46.006504 88.788522
vn 0.000000 -39.840109 91.721130
vn 0.000000 -39.840109 91.721130
vn 0.000000 -33.487961 94.226092
vn 0.000000 -33.487961 94.226092
vn 0.000000 -26.979677 96.291729
vn 0.000000 -26.979677 96.291729
vn 0.000000 -20.345601 97.908409
vn 0.000000 -20.345601 97.908409
vn 0.000000 -13.616665 99.068595
vn 0.000000 -13.616665 99.068595
vn 0.000000 -6.824241 99.766877
vn 0.000000 -6.824241 99.766877
vn 0.000000 0.000000 100.000000
vn 0.000000 0.000000 100.000000
vn 100.000000 0.000000 0.000000
vn 100.000000 0.000000 0.000000
vn 100.000000 0.000000 0.000000
vn 100.000000 0.000000 0.000000
vn 100.000000 0.000000 0.000000
vn 100.000000 0.000000 0.000000
vn 100.000000 0.000000 0.000000
vn 100.000000 0.000000 0.000000
vn 100.000000 0.000000 0.000000
vn 100.000000 0.000000 0.000000
vn 100.000000 0.000000 0.000000
vn 100.000000 0.000000 0.000000
vn 100.000000 0.000000 0.000000
vn 100.000000 0.000000 0.000000
vn 100.000000 0.000000 0.000000
vn 100.000000 0.000000 0.000000
vn 100.000000 0.000000 0.000000
vn 100.000000 0.000000 0.000000
vn 100.000000 0.000000 0.000000
vn 100.000000 0.000000 0.000000
vn 100.000000 0.000000 0.000000
vn 100.000000 0.000000 0.000000
vn 100.000000 0.000000 0.000000
vn 100.000000 0.000000 0.000000
vn 100.000000 0.000000 0.000000
vn 100.000000 0.000000 0.000000
vn 100.000000 0.000000 0.000000
vn 0.000000 -100.000000 0.000000
vn 0.000000 -100.000000 0.000000
vn 100.000000 0.000000 0.000000
vn 100.000000 0.000000 0.000000
vn 99.766877 -0.000000 6.824241
vn 99.766877 -0.000000 6.824241
vn 99.068595 -0.000000 13.616665
vn 99.068595 -0.000000 13.616665
vn 97.908409 -0.000000 20.345601
vn 97.908409 -0.000000 20.345601
vn 96.291729 -0.000000 26.979677
vn 96.291729 -0.000000 26.979677
vn 94.226092 -0.000000 33.487961
vn 94.226092 -0.000000 33.487961
vn 91.721130 -0.000000 39.840109
vn 91.721130 -0.000000 39.840109
vn 88.788522 -0.000000 46.006504
vn 88.788522 -0.000000 46.006504
vn 85.441940 -0.000000 51.958395
vn 85.441940 -0.000000 51.958395
vn 81.696989 -0.000000 57.668032
vn 81.696989 -0.000000 57.668032
vn 77.571129 -0.000000 63.108794
vn 77.571129 -0.000000 63.108794
vn 73.083596 -0.000000 68.255314
vn 73.083596 -0.000000 68.255314
vn 68.255314 -0.000000 73.083596
vn 68.255314 -0.000000 73.083596
vn 63.108794 -0.000000 77.571129
vn 63.108794 -0.000000 77.571129
vn 57.668032 -0.000000 81.696989
vn 57.668032 -0.000000 81.696989
vn 51.958395 -0.000000 85.441940
vn 51.958395 -0.000000 85.441940
vn 46.006504 -0.000000 88.788522
vn 46.006504 -0.000000 88.788522
vn 39.840109 -0.000000 91.721130
vn 39.840109 -0.000000 91.721130
vn 33.487961 -0.000000 94.226092
vn 33.487961 -0.000000 94.226092
vn 26.979677 -0.000000 96.291729
vn 26.979677 -0.000000 96.291729
vn 20.345601 -0.000000 97.908409
vn 20.345601 -0.000000 97.908409
vn 13.616665 -0.000000 99.068595
vn 13.616665 -0.000000 99.068595
vn 6.824241 -0.000000 99.766877
vn 6.824241 -0.000000 99.766877
vn 0.000000 0.000000 100.000000
vn 0.000000 0.000000 100.000000
vn 0.000000 0.000000 100.000000
vn 0.000000 0.000000 100.000000
vn 0.000000 100.000000 0.000000
vn 0.000000 100.000000 0.000000
vn 0.000000 100.000000 0.000000
vn 0.000000 100.000000 0.000000
vn 0.000000 100.000000 0.000000
vn 0.000000 100.000000 0.000000
vn 0.000000 100.000000 0.000000
vn 0.000000 100.000000 0.000000
vn 0.000000 100.000000 0.000000
vn 0.000000 100.000000 0.000000
vn 0.000000 100.000000 0.000000
vn 0.000000 100.000000 0.000000
vn 0.000000 100.000000 0.000000
vn 0.000000 100.000000 0.000000
vn 0.000000 100.000000 0.000000
vn 0.000000 100.000000 0.000000
vn 0.000000 100.000000 0.000000
vn 0.000000 100.000000 0.000000
vn 0.000000 100.000000 0.000000
vn 0.000000 100.000000 0.000000
vn 0.000000 100.000000 0.000000
vn 0.000000 100.000000 0.000000
vn 0.000000 100.000000 0.000000
vn 0.000000 100.000000 0.000000
vn 0.000000 100.000000 0.000000
vn 0.000000 100.000000 0.000000
vn 0.000000 100.000000 0.000000
vn -100.000000 0.000000 0.000000
vn -100.000000 0.000000 0.000000
vn -100.000000 0.000000 0.000000
vn -100.000000 0.000000 0.000000
vn -100.000000 0.000000 0.000000
vn -100.000000 0.000000 0.000000
vn -100.000000 0.000000 0.000000
vn -100.000000 0.000000 0.000000
vn -100.000000 0.000000 0.000000
vn -100.000000 0.000000 0.000000
vn -100.000000 0.000000 0.000000
vn -100.000000 0.000000 0.000000
vn -100.000000 0.000000 0.000000
vn -100.000000 0.000000 0.000000
vn -100.000000 0.000000 0.000000
vn -100.000000 0.000000 0.000000
vn -100.000000 0.000000 0.000000
vn -100.000000 0.000000 0.000000
vn -100.000000 0.000000 0.000000
vn -100.000000 0.000000 0.000000
vn -100.000000 0.000000 0.000000
vn -100.000000 0.000000 0.000000
vn -100.000000 0.000000 0.000000
vn -100.000000 0.000000 0.000000
vn -100.000000 0.000000 0.000000
vn -100.000000 0.000000 0.000000
vn -100.000000 0.000000 0.000000
vn 100.000000 0.000000 0.000000
vn 100.000000 0.000000 0.000000
vn 0.000000 -100.000000 0.000000
vn 0.000000 -100.000000 0.000000
vn 0.000000 -100.000000 0.000000
vn 0.000000 -100.000000 0.000000
vn 0.000000 -100.000000 0.000000
vn 0.000000 -100.000000 0.000000
vn 0.000000 -100.000000 0.000000
vn 0.000000 -100.000000 0.000000
vn 0.000000 -100.000000 0.000000
vn 0.000000 -100.000000 0.000000
vn 0.000000 -100.000000 0.000000
vn 0.000000 -100.000000 0.000000
vn 0.000000 -100.000000 0.000000
vn 0.000000 -100.000000 0.000000
vn 0.000000 -100.000000 0.000000
vn 0.000000 -100.000000 0.000000
vn 0.000000 -100.000000 0.000000
vn 0.000000 -100.000000 0.000000
vn 0.000000 -100.000000 0.000000
vn 0.000000 -100.000000 0.000000
vn 0.000000 -100.000000 0.000000
vn 0.000000 -100.000000 0.000000
vn 0.000000 -100.000000 0.000000
vn 0.000000 -100.000000 0.000000
vn 0.000000 -100.000000 0.000000
vn 0.000000 -100.000000 0.000000
vn 0.000000 -100.000000 0.000000
vn -0.000000 0.000000 -100.000000
vn -0.000000 0.000000 -100.000000
vn -0.000000 0.000000 -100.000000
vn -0.000000 0.000000 -100.000000
vn -0.000000 0.000000 -100.000000
vn -0.000000 0.000000 -100.000000
usemtl Acciaio_-_Satinato
f 48/1/1 1/2/2 47/3/3
f 47/3/3 1/2/2 2/4/4
f 47/3/3 2/4/4 46/5/5
f 46/5/5 2/4/4 3/6/6
f 46/5/5 3/6/6 45/7/7
f 45/7/7 3/6/6 4/8/8
f 45/7/7 4/8/8 44/9/9
f 44/9/9 4/8/8 5/10/10
f 44/9/9 5/10/10 43/11/11
f 43/11/11 5/10/10 6/12/12
f 43/11/11 6/12/12 42/13/13
f 42/13/13 6/12/12 7/14/14
f 42/13/13 7/14/14 41/15/15
f 41/15/15 7/14/14 8/16/16
f 41/15/15 8/16/16 40/17/17
f 40/17/17 8/16/16 9/18/18
f 40/17/17 9/18/18 39/19/19
f 39/19/19 9/18/18 10/20/20
f 39/19/19 10/20/20 38/21/21
f 38/21/21 10/20/20 11/22/22
f 38/21/21 11/22/22 37/23/23
f 37/23/23 11/22/22 12/24/24
f 37/23/23 12/24/24 36/25/25
f 36/25/25 12/24/24 13/26/26
f 36/25/25 13/26/26 35/27/27
f 35/27/27 13/26/26 14/28/28
f 35/27/27 14/28/28 34/29/29
f 34/29/29 14/28/28 15/30/30
f 34/29/29 15/30/30 33/31/31
f 33/31/31 15/30/30 16/32/32
f 33/31/31 16/32/32 32/33/33
f 32/33/33 16/32/32 17/34/34
f 32/33/33 17/34/34 31/35/35
f 31/35/35 17/34/34 18/36/36
f 31/35/35 18/36/36 30/37/37
f 30/37/37 18/36/36 19/38/38
f 30/37/37 19/38/38 29/39/39
f 29/39/39 19/38/38 20/40/40
f 29/39/39 20/40/40 28/41/41
f 28/41/41 20/40/40 21/42/42
f 28/41/41 21/42/42 27/43/43
f 27/43/43 21/42/42 22/44/44
f 27/43/43 22/44/44 26/45/45
f 26/45/45 22/44/44 23/46/46
f 26/45/45 23/46/46 25/47/47
f 25/47/47 23/46/46 24/48/48
f 23/49/49 1/50/50 24/51/51
f 24/51/51 1/50/50 50/52/52
f 24/51/51 50/52/52 51/53/53
f 23/49/49 22/54/54 1/50/50
f 1/50/50 22/54/54 21/55/55
f 1/50/50 21/55/55 20/56/56
f 20/56/56 19/57/57 1/50/50
f 1/50/50 19/57/57 18/58/58
f 1/50/50 18/58/58 17/59/59
f 17/59/59 16/60/60 1/50/50
f 1/50/50 16/60/60 15/61/61
f 1/50/50 15/61/61 14/62/62
f 14/62/62 13/63/63 1/50/50
f 1/50/50 13/63/63 12/64/64
f 1/50/50 12/64/64 11/65/65
f 11/65/65 10/66/66 1/50/50
f 1/50/50 10/66/66 9/67/67
f 1/50/50 9/67/67 8/68/68
f 8/68/68 7/69/69 1/50/50
f 1/50/50 7/69/69 6/70/70
f 1/50/50 6/70/70 5/71/71
f 5/71/71 4/72/72 1/50/50
f 1/50/50 4/72/72 3/73/73
f 1/50/50 3/73/73 2/74/74
f 1/50/50 49/75/75 50/52/52
f 1/76/2 48/77/1 49/78/76
f 49/78/76 48/77/1 52/79/77
f 100/80/78 53/81/79 99/82/80
f 99/82/80 53/81/79 54/83/81
f 99/82/80 54/83/81 98/84/82
f 98/84/82 54/83/81 55/85/83
f 98/84/82 55/85/83 97/86/84
f 97/86/84 55/85/83 56/87/85
f 97/86/84 56/87/85 96/88/86
f 96/88/86 56/87/85 57/89/87
f 96/88/86 57/89/87 95/90/88
f 95/90/88 57/89/87 58/91/89
f 95/90/88 58/91/89 94/92/90
f 94/92/90 58/91/89 59/93/91
f 94/92/90 59/93/91 93/94/92
f 93/94/92 59/93/91 60/95/93
f 93/94/92 60/95/93 92/96/94
f 92/96/94 60/95/93 61/97/95
f 92/96/94 61/97/95 91/98/96
f 91/98/96 61/97/95 62/99/97
f 91/98/96 62/99/97 90/100/98
f 90/100/98 62/99/97 63/101/99
f 90/100/98 63/101/99 89/102/100
f 89/102/100 63/101/99 64/103/101
f 89/102/100 64/103/101 88/104/102
f 88/104/102 64/103/101 65/105/103
f 88/104/102 65/105/103 87/106/104
f 87/106/104 65/105/103 66/107/105
f 87/106/104 66/107/105 86/108/106
f 86/108/106 66/107/105 67/109/107
f 86/108/106 67/109/107 85/110/108
f 85/110/108 67/109/107 68/111/109
f 85/110/108 68/111/109 84/112/110
f 84/112/110 68/111/109 69/113/111
f 84/112/110 69/113/111 83/114/112
f 83/114/112 69/113/111 70/115/113
f 83/114/112 70/115/113 82/116/114
f 82/116/114 70/115/113 71/117/115
f 82/116/114 71/117/115 81/118/116
f 81/118/116 71/117/115 72/119/117
f 81/118/116 72/119/117 80/120/118
f 80/120/118 72/119/117 73/121/119
f 80/120/118 73/121/119 79/122/120
f 79/122/120 73/121/119 74/123/121
f 79/122/120 74/123/121 78/124/122
f 78/124/122 74/123/121 75/125/123
f 78/124/122 75/125/123 77/126/124
f 77/126/124 75/125/123 76/127/125
f 24/128/48 51/129/126 25/130/47
f 25/130/47 51/129/126 101/131/127
f 101/131/127 51/129/126 76/132/125
f 76/132/125 51/129/126 77/133/124
f 101/134/128 76/135/129 103/136/130
f 103/136/130 76/135/129 75/137/131
f 103/136/130 75/137/131 74/138/132
f 74/138/132 73/139/133 103/136/130
f 103/136/130 73/139/133 72/140/134
f 103/136/130 72/140/134 71/141/135
f 71/141/135 70/142/136 103/136/130
f 103/136/130 70/142/136 69/143/137
f 103/136/130 69/143/137 68/144/138
f 68/144/138 67/145/139 103/136/130
f 103/136/130 67/145/139 66/146/140
f 103/136/130 66/146/140 65/147/141
f 65/147/141 64/148/142 103/136/130
f 103/136/130 64/148/142 63/149/143
f 103/136/130 63/149/143 62/150/144
f 62/150/144 61/151/145 103/136/130
f 103/136/130 61/151/145 60/152/146
f 103/136/130 60/152/146 59/153/147
f 59/153/147 58/154/148 103/136/130
f 103/136/130 58/154/148 57/155/149
f 103/136/130 57/155/149 56/156/150
f 56/156/150 55/157/151 103/136/130
f 103/136/130 55/157/151 54/158/152
f 103/136/130 54/158/152 53/159/153
f 53/159/153 102/160/154 103/136/130
f 52/161/155 48/162/156 103/163/157
f 103/163/157 48/162/156 47/164/158
f 103/163/157 47/164/158 46/165/159
f 46/165/159 45/166/160 103/163/157
f 103/163/157 45/166/160 44/167/161
f 103/163/157 44/167/161 43/168/162
f 43/168/162 42/169/163 103/163/157
f 103/163/157 42/169/163 41/170/164
f 103/163/157 41/170/164 40/171/165
f 40/171/165 39/172/166 103/163/157
f 103/163/157 39/172/166 38/173/167
f 103/163/157 38/173/167 37/174/168
f 37/174/168 36/175/169 103/163/157
f 103/163/157 36/175/169 35/176/170
f 103/163/157 35/176/170 34/177/171
f 34/177/171 33/178/172 103/163/157
f 103/163/157 33/178/172 32/179/173
f 103/163/157 32/179/173 31/180/174
f 31/180/174 30/181/175 103/163/157
f 103/163/157 30/181/175 29/182/176
f 103/163/157 29/182/176 28/183/177
f 28/183/177 27/184/178 103/163/157
f 103/163/157 27/184/178 26/185/179
f 103/163/157 26/185/179 25/186/180
f 25/186/180 101/187/181 103/163/157
f 53/188/79 100/189/78 102/190/182
f 102/190/182 100/189/78 104/191/183
f 99/192/184 98/193/185 100/194/186
f 100/194/186 98/193/185 97/195/187
f 100/194/186 97/195/187 96/196/188
f 96/196/188 95/197/189 100/194/186
f 100/194/186 95/197/189 94/198/190
f 100/194/186 94/198/190 93/199/191
f 93/199/191 92/200/192 100/194/186
f 100/194/186 92/200/192 91/201/193
f 100/194/186 91/201/193 90/202/194
f 90/202/194 89/203/195 100/194/186
f 100/194/186 89/203/195 88/204/196
f 100/194/186 88/204/196 87/205/197
f 87/205/197 86/206/198 100/194/186
f 100/194/186 86/206/198 85/207/199
f 100/194/186 85/207/199 84/208/200
f 84/208/200 83/209/201 100/194/186
f 100/194/186 83/209/201 82/210/202
f 100/194/186 82/210/202 81/211/203
f 81/211/203 80/212/204 100/194/186
f 100/194/186 80/212/204 79/213/205
f 100/194/186 79/213/205 78/214/206
f 78/214/206 77/215/207 100/194/186
f 100/194/186 77/215/207 50/216/208
f 100/194/186 50/216/208 104/217/209
f 77/215/207 51/218/210 50/216/208
f 49/219/211 52/220/212 50/221/213
f 50/221/213 52/220/212 103/222/214
f 50/221/213 103/222/214 102/223/215
f 102/223/215 104/224/216 50/221/213
# 104 vertices
# 224 texture params
# 216 normals
# 204 facets

# 1 groups
