# WaveFront *.obj file (generated by Autodesk ATF)

mtllib stanza_v2.mtl

g Corpo1

v 2.175870 4.800000 0.000000
v 4.800000 2.175870 0.000000
v 4.800000 2.175870 2.500000
v 2.175870 4.800000 2.500000
v 4.800000 -2.344875 0.000000
v 4.800000 -2.344875 2.500000
v 2.175870 1.800000 2.500000
v 2.175870 1.800000 0.000000
v 0.975870 4.800000 0.000000
v 1.080399 4.794522 0.000000
v 1.183782 4.778148 0.000000
v 1.284887 4.751057 0.000000
v 1.382607 4.713545 0.000000
v 1.475870 4.666025 0.000000
v 1.563655 4.609017 0.000000
v 1.645001 4.543145 0.000000
v 1.719015 4.469131 0.000000
v 1.784887 4.387785 0.000000
v 1.841896 4.300000 0.000000
v 1.889416 4.206737 0.000000
v 1.926927 4.109017 0.000000
v 1.954018 4.007912 0.000000
v 1.970392 3.904528 0.000000
v 1.975870 3.800000 0.000000
v 1.975870 3.800000 2.500000
v 1.970392 3.904528 2.500000
v 1.954018 4.007912 2.500000
v 1.926927 4.109017 2.500000
v 1.889416 4.206737 2.500000
v 1.841896 4.300000 2.500000
v 1.784887 4.387785 2.500000
v 1.719015 4.469131 2.500000
v 1.645001 4.543145 2.500000
v 1.563655 4.609017 2.500000
v 1.475870 4.666025 2.500000
v 1.382607 4.713545 2.500000
v 1.284887 4.751057 2.500000
v 1.183782 4.778148 2.500000
v 1.080399 4.794522 2.500000
v 0.975870 4.800000 2.500000
v 1.080399 4.794522 1.250000
v 1.183782 4.778148 1.250000
v 1.284887 4.751057 1.250000
v 1.382607 4.713545 1.250000
v 1.475870 4.666025 1.250000
v 1.563655 4.609017 1.250000
v 1.645001 4.543145 1.250000
v 1.719015 4.469131 1.250000
v 1.784887 4.387785 1.250000
v 1.841896 4.300000 1.250000
v 1.889416 4.206737 1.250000
v 1.926927 4.109017 1.250000
v 1.954018 4.007912 1.250000
v 1.970392 3.904528 1.250000
v 1.975870 1.800000 0.000000
v 1.975870 1.800000 2.500000
v -1.953450 -3.250550 0.000000
v -1.954523 -3.166064 0.000000
v -1.944718 -3.082142 0.000000
v -1.924198 -3.000179 0.000000
v -1.893304 -2.921537 0.000000
v -1.852550 -2.847523 0.000000
v -1.802613 -2.779367 0.000000
v -1.744322 -2.718202 0.000000
v -1.678647 -2.665044 0.000000
v -1.606679 -2.620777 0.000000
v -1.529614 -2.586136 0.000000
v -1.448733 -2.561697 0.000000
v -1.365380 -2.547867 0.000000
v -1.280940 -2.544875 0.000000
v -1.280940 -2.544875 2.500000
v -1.365380 -2.547867 2.500000
v -1.448733 -2.561697 2.500000
v -1.529614 -2.586136 2.500000
v -1.606679 -2.620777 2.500000
v -1.678647 -2.665044 2.500000
v -1.744322 -2.718202 2.500000
v -1.802613 -2.779367 2.500000
v -1.852550 -2.847523 2.500000
v -1.893304 -2.921537 2.500000
v -1.924198 -3.000179 2.500000
v -1.944718 -3.082142 2.500000
v -1.954523 -3.166064 2.500000
v -1.953450 -3.250550 2.500000
v -1.954523 -3.166064 1.250000
v -1.944718 -3.082142 1.250000
v -1.924198 -3.000179 1.250000
v -1.893304 -2.921537 1.250000
v -1.852550 -2.847523 1.250000
v -1.802613 -2.779367 1.250000
v -1.744322 -2.718202 1.250000
v -1.678647 -2.665044 1.250000
v -1.606679 -2.620777 1.250000
v -1.529614 -2.586136 1.250000
v -1.448733 -2.561697 1.250000
v -1.365380 -2.547867 1.250000
v -2.153907 -3.250550 0.000000
v -2.153907 -3.250550 2.500000
v -1.278225 -2.344875 0.000000
v -1.372537 -2.347679 0.000000
v -1.465966 -2.360853 0.000000
v -1.557376 -2.384236 0.000000
v -1.645654 -2.417545 0.000000
v -1.729727 -2.460374 0.000000
v -1.808572 -2.512201 0.000000
v -1.881229 -2.572397 0.000000
v -1.946814 -2.640229 0.000000
v -2.004530 -2.714871 0.000000
v -2.053673 -2.795415 0.000000
v -2.093648 -2.880883 0.000000
v -2.123965 -2.970232 0.000000
v -2.144258 -3.062378 0.000000
v -2.154280 -3.156197 0.000000
v -2.154280 -3.156197 2.500000
v -2.144258 -3.062378 2.500000
v -2.123965 -2.970232 2.500000
v -2.093648 -2.880883 2.500000
v -2.053673 -2.795415 2.500000
v -2.004530 -2.714871 2.500000
v -1.946814 -2.640229 2.500000
v -1.881229 -2.572397 2.500000
v -1.808572 -2.512201 2.500000
v -1.729727 -2.460374 2.500000
v -1.645654 -2.417545 2.500000
v -1.557376 -2.384236 2.500000
v -1.465966 -2.360853 2.500000
v -1.372537 -2.347679 2.500000
v -1.278225 -2.344875 2.500000
v -1.372537 -2.347679 1.250000
v -1.465966 -2.360853 1.250000
v -1.557376 -2.384236 1.250000
v -1.645654 -2.417545 1.250000
v -1.729727 -2.460374 1.250000
v -1.808572 -2.512201 1.250000
v -1.881229 -2.572397 1.250000
v -1.946814 -2.640229 1.250000
v -2.004530 -2.714871 1.250000
v -2.053673 -2.795415 1.250000
v -2.093648 -2.880883 1.250000
v -2.123965 -2.970232 1.250000
v -2.144258 -3.062378 1.250000
v -2.154280 -3.156197 1.250000
v -4.800000 4.800000 2.500000
v -4.800000 4.800000 0.000000
v -4.800000 -4.800000 0.000000
v -4.800000 -4.800000 2.500000
v 4.800000 -4.800000 0.000000
v 4.800000 -4.800000 2.500000
v 4.800000 -2.544875 0.000000
v 4.800000 -2.544875 2.500000
v -5.000000 5.000000 0.000000
v -5.000000 -5.000000 0.000000
v -5.000000 -5.000000 2.500000
v -5.000000 5.000000 2.500000
v 5.000000 5.000000 0.000000
v 5.000000 5.000000 2.500000
v 5.000000 -5.000000 0.000000
v 5.000000 -5.000000 2.500000
vt 0.000000 0.000000 0.000000
vt 371.107995 0.000000 0.000000
vt 0.000000 250.000000 0.000000
vt 371.107995 250.000000 0.000000
vt 262.412980 0.000000 0.000000
vt 714.487533 0.000000 0.000000
vt 262.412980 250.000000 0.000000
vt 714.487533 250.000000 0.000000
vt 300.000000 250.000000 0.000000
vt 0.000000 250.000000 0.000000
vt 300.000000 0.000000 0.000000
vt 0.000000 0.000000 0.000000
vt 250.000000 78.539816 0.000000
vt 0.000000 78.539816 0.000000
vt 125.000000 68.067841 0.000000
vt -0.000000 68.067841 0.000000
vt 125.000000 57.595865 0.000000
vt 0.000000 57.595865 0.000000
vt 125.000000 47.123890 0.000000
vt 0.000000 47.123890 0.000000
vt 125.000000 36.651914 0.000000
vt 0.000000 36.651914 0.000000
vt 125.000000 26.179939 0.000000
vt 0.000000 26.179939 0.000000
vt 125.000000 15.707963 0.000000
vt -0.000000 15.707963 0.000000
vt 125.000000 5.235988 0.000000
vt 0.000000 5.235988 0.000000
vt 125.000000 -5.235988 0.000000
vt 0.000000 -5.235988 0.000000
vt 125.000000 -15.707963 0.000000
vt -0.000000 -15.707963 0.000000
vt 125.000000 -26.179939 0.000000
vt 0.000000 -26.179939 0.000000
vt 125.000000 -36.651914 0.000000
vt -0.000000 -36.651914 0.000000
vt 125.000000 -47.123890 0.000000
vt 0.000000 -47.123890 0.000000
vt 125.000000 -57.595865 0.000000
vt 0.000000 -57.595865 0.000000
vt 125.000000 -68.067841 0.000000
vt 0.000000 -68.067841 0.000000
vt 0.000000 -78.539816 0.000000
vt 250.000000 -78.539816 0.000000
vt 250.000000 -68.067841 0.000000
vt 250.000000 -57.595865 0.000000
vt 250.000000 -47.123890 0.000000
vt 250.000000 -36.651914 0.000000
vt 250.000000 -26.179939 0.000000
vt 250.000000 -15.707963 0.000000
vt 250.000000 -5.235988 0.000000
vt 250.000000 5.235988 0.000000
vt 250.000000 15.707963 0.000000
vt 250.000000 26.179939 0.000000
vt 250.000000 36.651914 0.000000
vt 250.000000 47.123890 0.000000
vt 250.000000 57.595865 0.000000
vt 250.000000 68.067841 0.000000
vt 100.000000 0.000000 0.000000
vt 300.000000 0.000000 0.000000
vt 100.000000 250.000000 0.000000
vt 300.000000 250.000000 0.000000
vt 250.000000 109.916540 0.000000
vt 0.000000 109.916540 0.000000
vt 125.000000 101.461422 0.000000
vt -0.000000 101.461422 0.000000
vt 125.000000 93.006303 0.000000
vt -0.000000 93.006303 0.000000
vt 125.000000 84.551185 0.000000
vt -0.000000 84.551185 0.000000
vt 125.000000 76.096066 0.000000
vt 0.000000 76.096066 0.000000
vt 125.000000 67.640948 0.000000
vt 0.000000 67.640948 0.000000
vt 125.000000 59.185829 0.000000
vt 0.000000 59.185829 0.000000
vt 125.000000 50.730711 0.000000
vt 0.000000 50.730711 0.000000
vt 125.000000 42.275592 0.000000
vt -0.000000 42.275592 0.000000
vt 125.000000 33.820474 0.000000
vt 0.000000 33.820474 0.000000
vt 125.000000 25.365355 0.000000
vt 0.000000 25.365355 0.000000
vt 125.000000 16.910237 0.000000
vt -0.000000 16.910237 0.000000
vt 125.000000 8.455118 0.000000
vt 0.000000 8.455118 0.000000
vt 0.000000 0.000000 0.000000
vt 250.000000 0.000000 0.000000
vt 250.000000 8.455118 0.000000
vt 250.000000 16.910237 0.000000
vt 250.000000 25.365355 0.000000
vt 250.000000 33.820474 0.000000
vt 250.000000 42.275592 0.000000
vt 250.000000 50.730711 0.000000
vt 250.000000 59.185829 0.000000
vt 250.000000 67.640948 0.000000
vt 250.000000 76.096066 0.000000
vt 250.000000 84.551185 0.000000
vt 250.000000 93.006303 0.000000
vt 250.000000 101.461422 0.000000
vt 0.000000 0.000000 0.000000
vt 20.045739 0.000000 0.000000
vt 0.000000 250.000000 0.000000
vt 20.045739 250.000000 0.000000
vt -250.000000 0.000000 0.000000
vt -0.000000 0.000000 0.000000
vt -125.000000 9.440126 0.000000
vt -0.000000 9.440126 0.000000
vt -125.000000 18.880251 0.000000
vt -0.000000 18.880251 0.000000
vt -125.000000 28.320377 0.000000
vt -0.000000 28.320377 0.000000
vt -125.000000 37.760503 0.000000
vt -0.000000 37.760503 0.000000
vt -125.000000 47.200629 0.000000
vt -0.000000 47.200629 0.000000
vt -125.000000 56.640754 0.000000
vt -0.000000 56.640754 0.000000
vt -125.000000 66.080880 0.000000
vt -0.000000 66.080880 0.000000
vt -125.000000 75.521006 0.000000
vt -0.000000 75.521006 0.000000
vt -125.000000 84.961131 0.000000
vt -0.000000 84.961131 0.000000
vt -125.000000 94.401257 0.000000
vt -0.000000 94.401257 0.000000
vt -125.000000 103.841383 0.000000
vt -0.000000 103.841383 0.000000
vt -125.000000 113.281508 0.000000
vt -0.000000 113.281508 0.000000
vt -125.000000 122.721634 0.000000
vt -0.000000 122.721634 0.000000
vt -125.000000 132.161760 0.000000
vt -0.000000 132.161760 0.000000
vt -0.000000 141.601886 0.000000
vt -250.000000 141.601886 0.000000
vt -250.000000 132.161760 0.000000
vt -250.000000 122.721634 0.000000
vt -250.000000 113.281508 0.000000
vt -250.000000 103.841383 0.000000
vt -250.000000 94.401257 0.000000
vt -250.000000 84.961131 0.000000
vt -250.000000 75.521006 0.000000
vt -250.000000 66.080880 0.000000
vt -250.000000 56.640754 0.000000
vt -250.000000 47.200629 0.000000
vt -250.000000 37.760503 0.000000
vt -250.000000 28.320377 0.000000
vt -250.000000 18.880251 0.000000
vt -250.000000 9.440126 0.000000
vt -0.000000 0.000000 0.000000
vt 607.822490 0.000000 0.000000
vt -0.000000 250.000000 0.000000
vt 607.822490 250.000000 0.000000
vt 0.000000 0.000000 0.000000
vt 20.000000 0.000000 0.000000
vt 0.000000 250.000000 0.000000
vt 20.000000 250.000000 0.000000
vt 577.587020 250.000000 0.000000
vt 0.000000 250.000000 0.000000
vt 577.587020 0.000000 0.000000
vt 0.000000 0.000000 0.000000
vt 0.000000 0.000000 0.000000
vt 960.000000 0.000000 0.000000
vt 0.000000 250.000000 0.000000
vt 960.000000 250.000000 0.000000
vt 0.000000 0.000000 0.000000
vt 960.000000 0.000000 0.000000
vt 0.000000 250.000000 0.000000
vt 960.000000 250.000000 0.000000
vt 0.000000 0.000000 0.000000
vt 225.512467 0.000000 0.000000
vt 0.000000 250.000000 0.000000
vt 225.512467 250.000000 0.000000
vt 0.000000 0.000000 0.000000
vt 608.094021 0.000000 0.000000
vt 0.000000 250.000000 0.000000
vt 608.094021 250.000000 0.000000
vt -0.000000 0.000000 0.000000
vt 1000.000000 0.000000 0.000000
vt -0.000000 250.000000 0.000000
vt 1000.000000 250.000000 0.000000
vt -0.000000 0.000000 0.000000
vt 1000.000000 0.000000 0.000000
vt -0.000000 250.000000 0.000000
vt 1000.000000 250.000000 0.000000
vt 0.000000 0.000000 0.000000
vt 1000.000000 0.000000 0.000000
vt -0.000000 250.000000 0.000000
vt 1000.000000 250.000000 0.000000
vt 0.000000 0.000000 0.000000
vt 1000.000000 0.000000 0.000000
vt 0.000000 250.000000 0.000000
vt 1000.000000 250.000000 0.000000
vt 480.000000 -234.487533 0.000000
vt 500.000000 -500.000000 0.000000
vt 480.000000 217.587020 0.000000
vt 500.000000 500.000000 0.000000
vt 217.587020 480.000000 0.000000
vt 97.587020 480.000000 0.000000
vt 108.039867 479.452190 0.000000
vt 480.000000 -254.487533 0.000000
vt -127.822490 -234.487533 0.000000
vt -128.094021 -254.487533 0.000000
vt -137.253659 -234.767917 0.000000
vt -136.537978 -254.786728 0.000000
vt -146.596575 -236.085298 0.000000
vt -144.873277 -256.169743 0.000000
vt -155.737564 -238.423647 0.000000
vt -152.961387 -258.613595 0.000000
vt -164.565411 -241.754515 0.000000
vt -160.667887 -262.077666 0.000000
vt -172.972709 -246.037376 0.000000
vt -167.864698 -266.504386 0.000000
vt -180.857170 -251.220121 0.000000
vt -174.432211 -271.820184 0.000000
vt -188.122864 -257.239693 0.000000
vt -194.681393 -264.022854 0.000000
vt -180.261277 -277.936713 0.000000
vt -200.452959 -271.487074 0.000000
vt -185.255018 -284.752319 0.000000
vt -205.367343 -279.541539 0.000000
vt -189.330441 -292.153729 0.000000
vt -209.364751 -288.088251 0.000000
vt -192.419813 -300.017934 0.000000
vt -212.396549 -297.023225 0.000000
vt -194.471790 -308.214233 0.000000
vt -214.425849 -306.237752 0.000000
vt -195.452269 -316.606408 0.000000
vt -215.427962 -315.619721 0.000000
vt -215.390694 -325.054983 0.000000
vt -195.344955 -325.054983 0.000000
vt 480.000000 -480.000000 0.000000
vt -480.000000 -480.000000 0.000000
vt -500.000000 -500.000000 0.000000
vt -480.000000 480.000000 0.000000
vt -500.000000 500.000000 0.000000
vt 118.378189 477.814760 0.000000
vt 128.488720 475.105652 0.000000
vt 138.260685 471.354546 0.000000
vt 147.587020 466.602540 0.000000
vt 156.365546 460.901699 0.000000
vt 164.500081 454.314483 0.000000
vt 171.901503 446.913061 0.000000
vt 178.488720 438.778525 0.000000
vt 184.189561 430.000000 0.000000
vt 188.941566 420.673664 0.000000
vt 192.692672 410.901699 0.000000
vt 195.401780 400.791169 0.000000
vt 197.039210 390.452846 0.000000
vt 197.587020 380.000000 0.000000
vt 217.587020 180.000000 0.000000
vt 197.587020 180.000000 0.000000
vt -217.587020 180.000000 0.000000
vt -197.587020 380.000000 0.000000
vt -217.587020 480.000000 0.000000
vt -197.039210 390.452846 0.000000
vt -195.401780 400.791169 0.000000
vt -197.587020 180.000000 0.000000
vt -192.692672 410.901699 0.000000
vt -188.941566 420.673664 0.000000
vt -184.189561 430.000000 0.000000
vt -178.488720 438.778525 0.000000
vt -171.901503 446.913061 0.000000
vt -164.500081 454.314483 0.000000
vt -156.365546 460.901699 0.000000
vt -147.587020 466.602540 0.000000
vt -138.260685 471.354546 0.000000
vt -128.488720 475.105652 0.000000
vt -118.378189 477.814760 0.000000
vt -108.039867 479.452190 0.000000
vt -97.587020 480.000000 0.000000
vt -500.000000 500.000000 0.000000
vt -480.000000 217.587020 0.000000
vt -500.000000 -500.000000 0.000000
vt -480.000000 -234.487533 0.000000
vt -480.000000 -254.487533 0.000000
vt 127.822490 -234.487533 0.000000
vt 128.094021 -254.487533 0.000000
vt 137.253659 -234.767917 0.000000
vt 136.537978 -254.786728 0.000000
vt 146.596575 -236.085298 0.000000
vt 144.873277 -256.169743 0.000000
vt 155.737564 -238.423647 0.000000
vt 152.961387 -258.613595 0.000000
vt 164.565411 -241.754515 0.000000
vt 160.667887 -262.077666 0.000000
vt 172.972709 -246.037376 0.000000
vt 167.864698 -266.504386 0.000000
vt 180.857170 -251.220121 0.000000
vt 174.432211 -271.820184 0.000000
vt 188.122864 -257.239693 0.000000
vt 194.681393 -264.022854 0.000000
vt 180.261277 -277.936713 0.000000
vt 200.452959 -271.487074 0.000000
vt 185.255018 -284.752319 0.000000
vt 205.367343 -279.541539 0.000000
vt 189.330441 -292.153729 0.000000
vt 209.364751 -288.088251 0.000000
vt 192.419813 -300.017934 0.000000
vt 212.396549 -297.023225 0.000000
vt 194.471790 -308.214233 0.000000
vt 214.425849 -306.237752 0.000000
vt 195.452269 -316.606408 0.000000
vt 215.427962 -315.619721 0.000000
vt 215.390694 -325.054983 0.000000
vt 195.344955 -325.054983 0.000000
vt 500.000000 500.000000 0.000000
vt 480.000000 480.000000 0.000000
vt 500.000000 -500.000000 0.000000
vt 480.000000 -480.000000 0.000000
vt -480.000000 -480.000000 0.000000
vn -70.710678 -70.710678 0.000000
vn -70.710678 -70.710678 0.000000
vn -70.710678 -70.710678 0.000000
vn -70.710678 -70.710678 0.000000
vn -100.000000 0.000000 0.000000
vn -100.000000 0.000000 0.000000
vn -100.000000 0.000000 0.000000
vn -100.000000 0.000000 0.000000
vn 100.000000 0.000000 0.000000
vn 100.000000 0.000000 0.000000
vn 100.000000 0.000000 0.000000
vn 100.000000 0.000000 0.000000
vn 0.000000 -100.000000 0.000000
vn 0.000000 -100.000000 0.000000
vn -10.452846 -99.452190 0.000000
vn -10.452846 -99.452190 0.000000
vn -20.791169 -97.814760 0.000000
vn -20.791169 -97.814760 0.000000
vn -30.901699 -95.105652 0.000000
vn -30.901699 -95.105652 0.000000
vn -40.673664 -91.354546 0.000000
vn -40.673664 -91.354546 0.000000
vn -50.000000 -86.602540 0.000000
vn -50.000000 -86.602540 0.000000
vn -58.778525 -80.901699 0.000000
vn -58.778525 -80.901699 0.000000
vn -66.913061 -74.314483 0.000000
vn -66.913061 -74.314483 0.000000
vn -74.314483 -66.913061 0.000000
vn -74.314483 -66.913061 0.000000
vn -80.901699 -58.778525 0.000000
vn -80.901699 -58.778525 0.000000
vn -86.602540 -50.000000 0.000000
vn -86.602540 -50.000000 0.000000
vn -91.354546 -40.673664 0.000000
vn -91.354546 -40.673664 0.000000
vn -95.105652 -30.901699 0.000000
vn -95.105652 -30.901699 0.000000
vn -97.814760 -20.791169 0.000000
vn -97.814760 -20.791169 0.000000
vn -99.452190 -10.452846 0.000000
vn -99.452190 -10.452846 0.000000
vn -100.000000 0.000000 0.000000
vn -100.000000 0.000000 0.000000
vn -99.452190 -10.452846 0.000000
vn -97.814760 -20.791169 0.000000
vn -95.105652 -30.901699 0.000000
vn -91.354546 -40.673664 0.000000
vn -86.602540 -50.000000 0.000000
vn -80.901699 -58.778525 0.000000
vn -74.314483 -66.913061 0.000000
vn -66.913061 -74.314483 0.000000
vn -58.778525 -80.901699 0.000000
vn -50.000000 -86.602540 0.000000
vn -40.673664 -91.354546 0.000000
vn -30.901699 -95.105652 0.000000
vn -20.791169 -97.814760 0.000000
vn -10.452846 -99.452190 0.000000
vn -100.000000 0.000000 0.000000
vn -100.000000 0.000000 0.000000
vn 99.702120 7.712799 0.000000
vn 99.702120 7.712799 0.000000
vn 99.865858 -5.177880 0.000000
vn 99.865858 -5.177880 0.000000
vn 98.369861 -17.982504 0.000000
vn 98.369861 -17.982504 0.000000
vn 95.238992 -30.488266 0.000000
vn 95.238992 -30.488266 0.000000
vn 90.525286 -42.487323 0.000000
vn 90.525286 -42.487323 0.000000
vn 84.307081 -53.780257 0.000000
vn 84.307081 -53.780257 0.000000
vn 76.687723 -64.179382 0.000000
vn 76.687723 -64.179382 0.000000
vn 67.793843 -73.511869 0.000000
vn 67.793843 -73.511869 0.000000
vn 57.773254 -81.622614 0.000000
vn 57.773254 -81.622614 0.000000
vn 46.792493 -88.376822 0.000000
vn 46.792493 -88.376822 0.000000
vn 35.034058 -93.662238 0.000000
vn 35.034058 -93.662238 0.000000
vn 22.693370 -97.391021 0.000000
vn 22.693370 -97.391021 0.000000
vn 9.975526 -99.501200 0.000000
vn 9.975526 -99.501200 0.000000
vn -2.908108 -99.957706 0.000000
vn -2.908108 -99.957706 0.000000
vn 9.975526 -99.501200 0.000000
vn 22.693370 -97.391021 0.000000
vn 35.034058 -93.662238 0.000000
vn 46.792493 -88.376822 0.000000
vn 57.773254 -81.622614 0.000000
vn 67.793843 -73.511869 0.000000
vn 76.687723 -64.179382 0.000000
vn 84.307081 -53.780257 0.000000
vn 90.525286 -42.487323 0.000000
vn 95.238992 -30.488266 0.000000
vn 98.369861 -17.982504 0.000000
vn 99.865858 -5.177880 0.000000
vn 0.000000 -100.000000 0.000000
vn 0.000000 -100.000000 0.000000
vn 0.000000 -100.000000 0.000000
vn 0.000000 -100.000000 0.000000
vn 2.545599 99.967594 0.000000
vn 2.545599 99.967594 0.000000
vn -8.479826 99.639814 -0.000000
vn -8.479826 99.639814 -0.000000
vn -19.402079 98.099742 -0.000000
vn -19.402079 98.099742 -0.000000
vn -30.088272 95.366115 -0.000000
vn -30.088272 95.366115 -0.000000
vn -40.408389 91.472193 -0.000000
vn -40.408389 91.472193 -0.000000
vn -50.236867 86.465353 -0.000000
vn -50.236867 86.465353 -0.000000
vn -59.454126 80.406510 -0.000000
vn -59.454126 80.406510 -0.000000
vn -67.948022 73.369383 -0.000000
vn -67.948022 73.369383 -0.000000
vn -75.615212 65.439589 -0.000000
vn -75.615212 65.439589 -0.000000
vn -82.362411 56.713608 -0.000000
vn -82.362411 56.713608 -0.000000
vn -88.107527 47.297607 -0.000000
vn -88.107527 47.297607 -0.000000
vn -92.780662 37.306149 -0.000000
vn -92.780662 37.306149 -0.000000
vn -96.324959 26.860796 -0.000000
vn -96.324959 26.860796 -0.000000
vn -98.697294 16.088635 -0.000000
vn -98.697294 16.088635 -0.000000
vn -99.868805 5.120727 -0.000000
vn -99.868805 5.120727 -0.000000
vn -99.825237 -5.909483 0.000000
vn -99.825237 -5.909483 0.000000
vn -99.868805 5.120727 -0.000000
vn -98.697294 16.088635 -0.000000
vn -96.324959 26.860796 -0.000000
vn -92.780662 37.306149 -0.000000
vn -88.107527 47.297607 -0.000000
vn -82.362411 56.713608 -0.000000
vn -75.615212 65.439589 -0.000000
vn -67.948022 73.369383 -0.000000
vn -59.454126 80.406510 -0.000000
vn -50.236867 86.465353 -0.000000
vn -40.408389 91.472193 -0.000000
vn -30.088272 95.366115 -0.000000
vn -19.402079 98.099742 -0.000000
vn -8.479826 99.639814 -0.000000
vn 0.000000 100.000000 0.000000
vn 0.000000 100.000000 0.000000
vn 0.000000 100.000000 0.000000
vn 0.000000 100.000000 0.000000
vn 0.000000 -100.000000 0.000000
vn 0.000000 -100.000000 0.000000
vn 0.000000 -100.000000 0.000000
vn 0.000000 -100.000000 0.000000
vn 0.000000 -100.000000 0.000000
vn 0.000000 -100.000000 0.000000
vn 100.000000 0.000000 0.000000
vn 100.000000 0.000000 0.000000
vn 100.000000 0.000000 0.000000
vn 100.000000 0.000000 0.000000
vn 0.000000 100.000000 0.000000
vn 0.000000 100.000000 0.000000
vn 0.000000 100.000000 0.000000
vn 0.000000 100.000000 0.000000
vn -100.000000 0.000000 0.000000
vn -100.000000 0.000000 0.000000
vn -100.000000 0.000000 0.000000
vn -100.000000 0.000000 0.000000
vn 0.000000 -100.000000 0.000000
vn 0.000000 -100.000000 0.000000
vn 0.000000 -100.000000 0.000000
vn 0.000000 -100.000000 0.000000
vn -100.000000 0.000000 0.000000
vn -100.000000 0.000000 0.000000
vn -100.000000 0.000000 0.000000
vn -100.000000 0.000000 0.000000
vn 0.000000 100.000000 0.000000
vn 0.000000 100.000000 0.000000
vn 0.000000 100.000000 0.000000
vn 0.000000 100.000000 0.000000
vn 100.000000 -0.000000 0.000000
vn 100.000000 -0.000000 0.000000
vn 100.000000 -0.000000 0.000000
vn 100.000000 -0.000000 0.000000
vn 0.000000 -100.000000 0.000000
vn 0.000000 -100.000000 0.000000
vn 0.000000 -100.000000 0.000000
vn 0.000000 -100.000000 0.000000
vn 0.000000 0.000000 100.000000
vn 0.000000 0.000000 100.000000
vn 0.000000 0.000000 100.000000
vn 0.000000 0.000000 100.000000
vn 0.000000 0.000000 100.000000
vn 0.000000 0.000000 100.000000
vn 0.000000 0.000000 100.000000
vn 0.000000 0.000000 100.000000
vn 0.000000 0.000000 100.000000
vn 0.000000 0.000000 100.000000
vn 0.000000 0.000000 100.000000
vn 0.000000 0.000000 100.000000
vn 0.000000 0.000000 100.000000
vn 0.000000 0.000000 100.000000
vn 0.000000 0.000000 100.000000
vn 0.000000 0.000000 100.000000
vn 0.000000 0.000000 100.000000
vn 0.000000 0.000000 100.000000
vn 0.000000 0.000000 100.000000
vn 0.000000 0.000000 100.000000
vn 0.000000 0.000000 100.000000
vn 0.000000 0.000000 100.000000
vn 0.000000 0.000000 100.000000
vn 0.000000 0.000000 100.000000
vn 0.000000 0.000000 100.000000
vn 0.000000 0.000000 100.000000
vn 0.000000 0.000000 100.000000
vn 0.000000 0.000000 100.000000
vn 0.000000 0.000000 100.000000
vn 0.000000 0.000000 100.000000
vn 0.000000 0.000000 100.000000
vn 0.000000 0.000000 100.000000
vn 0.000000 0.000000 100.000000
vn 0.000000 0.000000 100.000000
vn 0.000000 0.000000 100.000000
vn 0.000000 0.000000 100.000000
vn 0.000000 0.000000 100.000000
vn 0.000000 0.000000 100.000000
vn 0.000000 0.000000 100.000000
vn 0.000000 0.000000 100.000000
vn 0.000000 0.000000 100.000000
vn 0.000000 0.000000 100.000000
vn 0.000000 0.000000 100.000000
vn 0.000000 0.000000 100.000000
vn 0.000000 0.000000 100.000000
vn 0.000000 0.000000 100.000000
vn 0.000000 0.000000 100.000000
vn 0.000000 0.000000 100.000000
vn 0.000000 0.000000 100.000000
vn 0.000000 0.000000 100.000000
vn 0.000000 0.000000 100.000000
vn 0.000000 0.000000 100.000000
vn 0.000000 0.000000 100.000000
vn 0.000000 0.000000 100.000000
vn 0.000000 0.000000 100.000000
vn 0.000000 0.000000 100.000000
vn 0.000000 0.000000 100.000000
vn 0.000000 0.000000 100.000000
vn 0.000000 0.000000 100.000000
vn -0.000000 0.000000 -100.000000
vn -0.000000 0.000000 -100.000000
vn -0.000000 0.000000 -100.000000
vn -0.000000 0.000000 -100.000000
vn -0.000000 0.000000 -100.000000
vn -0.000000 0.000000 -100.000000
vn -0.000000 0.000000 -100.000000
vn -0.000000 0.000000 -100.000000
vn -0.000000 0.000000 -100.000000
vn -0.000000 0.000000 -100.000000
vn -0.000000 0.000000 -100.000000
vn -0.000000 0.000000 -100.000000
vn -0.000000 0.000000 -100.000000
vn -0.000000 0.000000 -100.000000
vn -0.000000 0.000000 -100.000000
vn -0.000000 0.000000 -100.000000
vn -0.000000 0.000000 -100.000000
vn -0.000000 0.000000 -100.000000
vn -0.000000 0.000000 -100.000000
vn -0.000000 0.000000 -100.000000
vn -0.000000 0.000000 -100.000000
vn -0.000000 0.000000 -100.000000
vn -0.000000 0.000000 -100.000000
vn -0.000000 0.000000 -100.000000
vn -0.000000 0.000000 -100.000000
vn -0.000000 0.000000 -100.000000
vn -0.000000 0.000000 -100.000000
vn -0.000000 0.000000 -100.000000
vn -0.000000 0.000000 -100.000000
vn -0.000000 0.000000 -100.000000
vn -0.000000 0.000000 -100.000000
vn -0.000000 0.000000 -100.000000
vn -0.000000 0.000000 -100.000000
vn -0.000000 0.000000 -100.000000
vn -0.000000 0.000000 -100.000000
vn -0.000000 0.000000 -100.000000
vn -0.000000 0.000000 -100.000000
vn -0.000000 0.000000 -100.000000
vn -0.000000 0.000000 -100.000000
vn -0.000000 0.000000 -100.000000
vn -0.000000 0.000000 -100.000000
vn -0.000000 0.000000 -100.000000
vn -0.000000 0.000000 -100.000000
vn -0.000000 0.000000 -100.000000
vn -0.000000 0.000000 -100.000000
vn -0.000000 0.000000 -100.000000
vn -0.000000 0.000000 -100.000000
vn -0.000000 0.000000 -100.000000
vn -0.000000 0.000000 -100.000000
vn -0.000000 0.000000 -100.000000
vn -0.000000 0.000000 -100.000000
vn -0.000000 0.000000 -100.000000
vn -0.000000 0.000000 -100.000000
vn -0.000000 0.000000 -100.000000
vn -0.000000 0.000000 -100.000000
vn -0.000000 0.000000 -100.000000
vn -0.000000 0.000000 -100.000000
vn -0.000000 0.000000 -100.000000
vn -0.000000 0.000000 -100.000000
usemtl Acciaio_-_Satinato
f 1/1/1 2/2/2 4/3/3
f 4/3/3 2/2/2 3/4/4
f 2/5/5 5/6/6 3/7/7
f 3/7/7 5/6/6 6/8/8
f 4/9/9 7/10/10 1/11/11
f 1/11/11 7/10/10 8/12/12
f 40/13/13 9/14/14 41/15/15
f 41/15/15 9/14/14 10/16/16
f 41/15/15 10/16/16 42/17/17
f 42/17/17 10/16/16 11/18/18
f 42/17/17 11/18/18 43/19/19
f 43/19/19 11/18/18 12/20/20
f 43/19/19 12/20/20 44/21/21
f 44/21/21 12/20/20 13/22/22
f 44/21/21 13/22/22 45/23/23
f 45/23/23 13/22/22 14/24/24
f 45/23/23 14/24/24 46/25/25
f 46/25/25 14/24/24 15/26/26
f 46/25/25 15/26/26 47/27/27
f 47/27/27 15/26/26 16/28/28
f 47/27/27 16/28/28 48/29/29
f 48/29/29 16/28/28 17/30/30
f 48/29/29 17/30/30 49/31/31
f 49/31/31 17/30/30 18/32/32
f 49/31/31 18/32/32 50/33/33
f 50/33/33 18/32/32 19/34/34
f 50/33/33 19/34/34 51/35/35
f 51/35/35 19/34/34 20/36/36
f 51/35/35 20/36/36 52/37/37
f 52/37/37 20/36/36 21/38/38
f 52/37/37 21/38/38 53/39/39
f 53/39/39 21/38/38 22/40/40
f 53/39/39 22/40/40 54/41/41
f 54/41/41 22/40/40 23/42/42
f 54/41/41 23/42/42 24/43/43
f 24/43/43 25/44/44 54/41/41
f 54/41/41 25/44/44 26/45/45
f 54/41/41 26/45/45 53/39/39
f 53/39/39 26/45/45 27/46/46
f 53/39/39 27/46/46 52/37/37
f 52/37/37 27/46/46 28/47/47
f 52/37/37 28/47/47 51/35/35
f 51/35/35 28/47/47 29/48/48
f 51/35/35 29/48/48 50/33/33
f 50/33/33 29/48/48 30/49/49
f 50/33/33 30/49/49 49/31/31
f 49/31/31 30/49/49 31/50/50
f 49/31/31 31/50/50 48/29/29
f 48/29/29 31/50/50 32/51/51
f 48/29/29 32/51/51 47/27/27
f 47/27/27 32/51/51 33/52/52
f 47/27/27 33/52/52 46/25/25
f 46/25/25 33/52/52 34/53/53
f 46/25/25 34/53/53 45/23/23
f 45/23/23 34/53/53 35/54/54
f 45/23/23 35/54/54 44/21/21
f 44/21/21 35/54/54 36/55/55
f 44/21/21 36/55/55 43/19/19
f 43/19/19 36/55/55 37/56/56
f 43/19/19 37/56/56 42/17/17
f 42/17/17 37/56/56 38/57/57
f 42/17/17 38/57/57 41/15/15
f 41/15/15 38/57/57 39/58/58
f 41/15/15 39/58/58 40/13/13
f 24/59/43 55/60/59 25/61/44
f 25/61/44 55/60/59 56/62/60
f 84/63/61 57/64/62 85/65/63
f 85/65/63 57/64/62 58/66/64
f 85/65/63 58/66/64 86/67/65
f 86/67/65 58/66/64 59/68/66
f 86/67/65 59/68/66 87/69/67
f 87/69/67 59/68/66 60/70/68
f 87/69/67 60/70/68 88/71/69
f 88/71/69 60/70/68 61/72/70
f 88/71/69 61/72/70 89/73/71
f 89/73/71 61/72/70 62/74/72
f 89/73/71 62/74/72 90/75/73
f 90/75/73 62/74/72 63/76/74
f 90/75/73 63/76/74 91/77/75
f 91/77/75 63/76/74 64/78/76
f 91/77/75 64/78/76 92/79/77
f 92/79/77 64/78/76 65/80/78
f 92/79/77 65/80/78 93/81/79
f 93/81/79 65/80/78 66/82/80
f 93/81/79 66/82/80 94/83/81
f 94/83/81 66/82/80 67/84/82
f 94/83/81 67/84/82 95/85/83
f 95/85/83 67/84/82 68/86/84
f 95/85/83 68/86/84 96/87/85
f 96/87/85 68/86/84 69/88/86
f 96/87/85 69/88/86 70/89/87
f 70/89/87 71/90/88 96/87/85
f 96/87/85 71/90/88 72/91/89
f 96/87/85 72/91/89 95/85/83
f 95/85/83 72/91/89 73/92/90
f 95/85/83 73/92/90 94/83/81
f 94/83/81 73/92/90 74/93/91
f 94/83/81 74/93/91 93/81/79
f 93/81/79 74/93/91 75/94/92
f 93/81/79 75/94/92 92/79/77
f 92/79/77 75/94/92 76/95/93
f 92/79/77 76/95/93 91/77/75
f 91/77/75 76/95/93 77/96/94
f 91/77/75 77/96/94 90/75/73
f 90/75/73 77/96/94 78/97/95
f 90/75/73 78/97/95 89/73/71
f 89/73/71 78/97/95 79/98/96
f 89/73/71 79/98/96 88/71/69
f 88/71/69 79/98/96 80/99/97
f 88/71/69 80/99/97 87/69/67
f 87/69/67 80/99/97 81/100/98
f 87/69/67 81/100/98 86/67/65
f 86/67/65 81/100/98 82/101/99
f 86/67/65 82/101/99 85/65/63
f 85/65/63 82/101/99 83/102/100
f 85/65/63 83/102/100 84/63/61
f 97/103/101 57/104/102 98/105/103
f 98/105/103 57/104/102 84/106/104
f 128/107/105 99/108/106 129/109/107
f 129/109/107 99/108/106 100/110/108
f 129/109/107 100/110/108 130/111/109
f 130/111/109 100/110/108 101/112/110
f 130/111/109 101/112/110 131/113/111
f 131/113/111 101/112/110 102/114/112
f 131/113/111 102/114/112 132/115/113
f 132/115/113 102/114/112 103/116/114
f 132/115/113 103/116/114 133/117/115
f 133/117/115 103/116/114 104/118/116
f 133/117/115 104/118/116 134/119/117
f 134/119/117 104/118/116 105/120/118
f 134/119/117 105/120/118 135/121/119
f 135/121/119 105/120/118 106/122/120
f 135/121/119 106/122/120 136/123/121
f 136/123/121 106/122/120 107/124/122
f 136/123/121 107/124/122 137/125/123
f 137/125/123 107/124/122 108/126/124
f 137/125/123 108/126/124 138/127/125
f 138/127/125 108/126/124 109/128/126
f 138/127/125 109/128/126 139/129/127
f 139/129/127 109/128/126 110/130/128
f 139/129/127 110/130/128 140/131/129
f 140/131/129 110/130/128 111/132/130
f 140/131/129 111/132/130 141/133/131
f 141/133/131 111/132/130 112/134/132
f 141/133/131 112/134/132 142/135/133
f 142/135/133 112/134/132 113/136/134
f 142/135/133 113/136/134 97/137/135
f 97/137/135 98/138/136 142/135/133
f 142/135/133 98/138/136 114/139/137
f 142/135/133 114/139/137 141/133/131
f 141/133/131 114/139/137 115/140/138
f 141/133/131 115/140/138 140/131/129
f 140/131/129 115/140/138 116/141/139
f 140/131/129 116/141/139 139/129/127
f 139/129/127 116/141/139 117/142/140
f 139/129/127 117/142/140 138/127/125
f 138/127/125 117/142/140 118/143/141
f 138/127/125 118/143/141 137/125/123
f 137/125/123 118/143/141 119/144/142
f 137/125/123 119/144/142 136/123/121
f 136/123/121 119/144/142 120/145/143
f 136/123/121 120/145/143 135/121/119
f 135/121/119 120/145/143 121/146/144
f 135/121/119 121/146/144 134/119/117
f 134/119/117 121/146/144 122/147/145
f 134/119/117 122/147/145 133/117/115
f 133/117/115 122/147/145 123/148/146
f 133/117/115 123/148/146 132/115/113
f 132/115/113 123/148/146 124/149/147
f 132/115/113 124/149/147 131/113/111
f 131/113/111 124/149/147 125/150/148
f 131/113/111 125/150/148 130/111/109
f 130/111/109 125/150/148 126/151/149
f 130/111/109 126/151/149 129/109/107
f 129/109/107 126/151/149 127/152/150
f 129/109/107 127/152/150 128/107/105
f 5/153/151 99/154/152 6/155/153
f 6/155/153 99/154/152 128/156/154
f 55/157/155 8/158/156 56/159/157
f 56/159/157 8/158/156 7/160/158
f 40/161/13 143/162/159 9/163/14
f 9/163/14 143/162/159 144/164/160
f 145/165/161 144/166/162 146/167/163
f 146/167/163 144/166/162 143/168/164
f 147/169/165 145/170/166 148/171/167
f 148/171/167 145/170/166 146/172/168
f 149/173/169 147/174/170 150/175/171
f 150/175/171 147/174/170 148/176/172
f 70/177/173 149/178/174 71/179/175
f 71/179/175 149/178/174 150/180/176
f 151/181/177 152/182/178 154/183/179
f 154/183/179 152/182/178 153/184/180
f 155/185/181 151/186/182 156/187/183
f 156/187/183 151/186/182 154/188/184
f 157/189/185 155/190/186 158/191/187
f 158/191/187 155/190/186 156/192/188
f 152/193/189 157/194/190 153/195/191
f 153/195/191 157/194/190 158/196/192
f 6/197/193 158/198/194 3/199/195
f 3/199/195 158/198/194 156/200/196
f 3/199/195 156/200/196 4/201/197
f 4/201/197 156/200/196 40/202/198
f 4/201/197 40/202/198 39/203/199
f 158/198/194 6/197/193 150/204/200
f 150/204/200 6/197/193 128/205/201
f 150/204/200 128/205/201 71/206/202
f 71/206/202 128/205/201 127/207/203
f 71/206/202 127/207/203 72/208/204
f 72/208/204 127/207/203 126/209/205
f 72/208/204 126/209/205 73/210/206
f 73/210/206 126/209/205 125/211/207
f 73/210/206 125/211/207 74/212/208
f 74/212/208 125/211/207 124/213/209
f 74/212/208 124/213/209 75/214/210
f 75/214/210 124/213/209 123/215/211
f 75/214/210 123/215/211 76/216/212
f 76/216/212 123/215/211 122/217/213
f 76/216/212 122/217/213 77/218/214
f 77/218/214 122/217/213 121/219/215
f 77/218/214 121/219/215 120/220/216
f 77/218/214 120/220/216 78/221/217
f 78/221/217 120/220/216 119/222/218
f 78/221/217 119/222/218 79/223/219
f 79/223/219 119/222/218 118/224/220
f 79/223/219 118/224/220 80/225/221
f 80/225/221 118/224/220 117/226/222
f 80/225/221 117/226/222 81/227/223
f 81/227/223 117/226/222 116/228/224
f 81/227/223 116/228/224 82/229/225
f 82/229/225 116/228/224 115/230/226
f 82/229/225 115/230/226 83/231/227
f 83/231/227 115/230/226 114/232/228
f 83/231/227 114/232/228 98/233/229
f 98/233/229 84/234/230 83/231/227
f 150/204/200 148/235/231 158/198/194
f 158/198/194 148/235/231 146/236/232
f 158/198/194 146/236/232 153/237/233
f 153/237/233 146/236/232 143/238/234
f 153/237/233 143/238/234 154/239/235
f 154/239/235 143/238/234 40/202/198
f 154/239/235 40/202/198 156/200/196
f 39/203/199 38/240/236 4/201/197
f 4/201/197 38/240/236 37/241/237
f 4/201/197 37/241/237 36/242/238
f 36/242/238 35/243/239 4/201/197
f 4/201/197 35/243/239 34/244/240
f 4/201/197 34/244/240 33/245/241
f 33/245/241 32/246/242 4/201/197
f 4/201/197 32/246/242 31/247/243
f 4/201/197 31/247/243 30/248/244
f 30/248/244 29/249/245 4/201/197
f 4/201/197 29/249/245 28/250/246
f 4/201/197 28/250/246 27/251/247
f 27/251/247 26/252/248 4/201/197
f 4/201/197 26/252/248 25/253/249
f 4/201/197 25/253/249 7/254/250
f 7/254/250 25/253/249 56/255/251
f 8/256/252 24/257/253 1/258/254
f 1/258/254 24/257/253 23/259/255
f 1/258/254 23/259/255 22/260/256
f 8/256/252 55/261/257 24/257/253
f 22/260/256 21/262/258 1/258/254
f 1/258/254 21/262/258 20/263/259
f 1/258/254 20/263/259 19/264/260
f 19/264/260 18/265/261 1/258/254
f 1/258/254 18/265/261 17/266/262
f 1/258/254 17/266/262 16/267/263
f 16/267/263 15/268/264 1/258/254
f 1/258/254 15/268/264 14/269/265
f 1/258/254 14/269/265 13/270/266
f 13/270/266 12/271/267 1/258/254
f 1/258/254 12/271/267 11/272/268
f 1/258/254 11/272/268 10/273/269
f 10/273/269 9/274/270 1/258/254
f 1/258/254 9/274/270 155/275/271
f 1/258/254 155/275/271 2/276/272
f 2/276/272 155/275/271 157/277/273
f 2/276/272 157/277/273 5/278/274
f 5/278/274 157/277/273 149/279/275
f 5/278/274 149/279/275 99/280/276
f 99/280/276 149/279/275 70/281/277
f 99/280/276 70/281/277 100/282/278
f 100/282/278 70/281/277 69/283/279
f 100/282/278 69/283/279 101/284/280
f 101/284/280 69/283/279 68/285/281
f 101/284/280 68/285/281 102/286/282
f 102/286/282 68/285/281 67/287/283
f 102/286/282 67/287/283 103/288/284
f 103/288/284 67/287/283 66/289/285
f 103/288/284 66/289/285 104/290/286
f 104/290/286 66/289/285 65/291/287
f 104/290/286 65/291/287 105/292/288
f 105/292/288 65/291/287 64/293/289
f 105/292/288 64/293/289 106/294/290
f 106/294/290 64/293/289 107/295/291
f 107/295/291 64/293/289 63/296/292
f 107/295/291 63/296/292 108/297/293
f 108/297/293 63/296/292 62/298/294
f 108/297/293 62/298/294 109/299/295
f 109/299/295 62/298/294 61/300/296
f 109/299/295 61/300/296 110/301/297
f 110/301/297 61/300/296 60/302/298
f 110/301/297 60/302/298 111/303/299
f 111/303/299 60/302/298 59/304/300
f 111/303/299 59/304/300 112/305/301
f 112/305/301 59/304/300 58/306/302
f 112/305/301 58/306/302 113/307/303
f 113/307/303 58/306/302 97/308/304
f 97/308/304 58/306/302 57/309/305
f 155/275/271 9/274/270 151/310/306
f 151/310/306 9/274/270 144/311/307
f 151/310/306 144/311/307 152/312/308
f 152/312/308 144/311/307 145/313/309
f 152/312/308 145/313/309 147/314/310
f 152/312/308 147/314/310 157/277/273
f 157/277/273 147/314/310 149/279/275
g Corpo2

v 1.500000 1.500000 0.000000
v 1.500000 0.500000 0.000000
v 1.500000 0.500000 1.000000
v 1.500000 1.500000 1.000000
v 2.500000 1.500000 0.000000
v 2.500000 1.500000 1.000000
v 2.500000 0.500000 0.000000
v 2.500000 0.500000 1.000000
vt -0.000000 0.000000 0.000000
vt 100.000000 0.000000 0.000000
vt -0.000000 100.000000 0.000000
vt 100.000000 100.000000 0.000000
vt -0.000000 0.000000 0.000000
vt 100.000000 0.000000 0.000000
vt -0.000000 100.000000 0.000000
vt 100.000000 100.000000 0.000000
vt 0.000000 0.000000 0.000000
vt 100.000000 0.000000 0.000000
vt 0.000000 100.000000 0.000000
vt 100.000000 100.000000 0.000000
vt 0.000000 0.000000 0.000000
vt 100.000000 0.000000 0.000000
vt 0.000000 100.000000 0.000000
vt 100.000000 100.000000 0.000000
vt -50.000000 -50.000000 0.000000
vt 50.000000 -50.000000 0.000000
vt -50.000000 50.000000 0.000000
vt 50.000000 50.000000 0.000000
vt -50.000000 -50.000000 0.000000
vt 50.000000 -50.000000 0.000000
vt -50.000000 50.000000 0.000000
vt 50.000000 50.000000 0.000000
vn -100.000000 0.000000 0.000000
vn -100.000000 0.000000 0.000000
vn -100.000000 0.000000 0.000000
vn -100.000000 0.000000 0.000000
vn 0.000000 100.000000 0.000000
vn 0.000000 100.000000 0.000000
vn 0.000000 100.000000 0.000000
vn 0.000000 100.000000 0.000000
vn 100.000000 0.000000 0.000000
vn 100.000000 0.000000 0.000000
vn 100.000000 0.000000 0.000000
vn 100.000000 0.000000 0.000000
vn 0.000000 -100.000000 0.000000
vn 0.000000 -100.000000 0.000000
vn 0.000000 -100.000000 0.000000
vn 0.000000 -100.000000 0.000000
vn 0.000000 0.000000 100.000000
vn 0.000000 0.000000 100.000000
vn 0.000000 0.000000 100.000000
vn 0.000000 0.000000 100.000000
vn -0.000000 0.000000 -100.000000
vn -0.000000 0.000000 -100.000000
vn -0.000000 0.000000 -100.000000
vn -0.000000 0.000000 -100.000000
f 159/315/311 160/316/312 162/317/313
f 162/317/313 160/316/312 161/318/314
f 163/319/315 159/320/316 164/321/317
f 164/321/317 159/320/316 162/322/318
f 165/323/319 163/324/320 166/325/321
f 166/325/321 163/324/320 164/326/322
f 160/327/323 165/328/324 161/329/325
f 161/329/325 165/328/324 166/330/326
f 161/331/327 166/332/328 162/333/329
f 162/333/329 166/332/328 164/334/330
f 165/335/331 160/336/332 163/337/333
f 163/337/333 160/336/332 159/338/334
g Corpo3

v -1.000000 3.000000 1.000000
v -1.000000 3.000000 0.000000
v -2.500000 3.000000 0.000000
v -2.500000 3.000000 1.000000
v -2.500000 1.500000 1.000000
v -1.000000 1.500000 1.000000
v -2.500000 1.500000 0.000000
v -1.000000 1.500000 0.000000
vt -0.000000 0.000000 0.000000
vt 150.000000 0.000000 0.000000
vt -0.000000 100.000000 0.000000
vt 150.000000 100.000000 0.000000
vt 75.000000 75.000000 0.000000
vt -75.000000 75.000000 0.000000
vt 75.000000 -75.000000 0.000000
vt -75.000000 -75.000000 0.000000
vt -0.000000 0.000000 0.000000
vt 150.000000 0.000000 0.000000
vt -0.000000 100.000000 0.000000
vt 150.000000 100.000000 0.000000
vt 0.000000 0.000000 0.000000
vt 150.000000 0.000000 0.000000
vt 0.000000 100.000000 0.000000
vt 150.000000 100.000000 0.000000
vt 150.000000 100.000000 0.000000
vt 0.000000 100.000000 0.000000
vt 150.000000 0.000000 0.000000
vt 0.000000 0.000000 0.000000
vt -75.000000 -75.000000 0.000000
vt 75.000000 -75.000000 0.000000
vt -75.000000 75.000000 0.000000
vt 75.000000 75.000000 0.000000
vn 0.000000 100.000000 0.000000
vn 0.000000 100.000000 0.000000
vn 0.000000 100.000000 0.000000
vn 0.000000 100.000000 0.000000
vn 0.000000 0.000000 100.000000
vn 0.000000 0.000000 100.000000
vn 0.000000 0.000000 100.000000
vn 0.000000 0.000000 100.000000
vn -100.000000 0.000000 0.000000
vn -100.000000 0.000000 0.000000
vn -100.000000 0.000000 0.000000
vn -100.000000 0.000000 0.000000
vn 0.000000 -100.000000 0.000000
vn 0.000000 -100.000000 0.000000
vn 0.000000 -100.000000 0.000000
vn 0.000000 -100.000000 0.000000
vn 100.000000 0.000000 0.000000
vn 100.000000 0.000000 0.000000
vn 100.000000 0.000000 0.000000
vn 100.000000 0.000000 0.000000
vn -0.000000 0.000000 -100.000000
vn -0.000000 0.000000 -100.000000
vn -0.000000 0.000000 -100.000000
vn -0.000000 0.000000 -100.000000
f 168/339/335 169/340/336 167/341/337
f 167/341/337 169/340/336 170/342/338
f 167/343/339 170/344/340 172/345/341
f 172/345/341 170/344/340 171/346/342
f 169/347/343 173/348/344 170/349/345
f 170/349/345 173/348/344 171/350/346
f 173/351/347 174/352/348 171/353/349
f 171/353/349 174/352/348 172/354/350
f 167/355/351 172/356/352 168/357/353
f 168/357/353 172/356/352 174/358/354
f 174/359/355 173/360/356 168/361/357
f 168/361/357 173/360/356 169/362/358
g Corpo4

v 0.866409 -4.378180 0.000000
v 0.500000 -4.378180 0.000000
v 0.500000 -4.378180 1.000000
v 0.866409 -4.378180 1.000000
v 0.866409 -4.800000 0.000000
v 0.866409 -4.800000 1.000000
v 0.500000 -4.800000 0.000000
v 0.500000 -4.800000 1.000000
vt 0.000000 0.000000 0.000000
vt 36.640857 0.000000 0.000000
vt 0.000000 100.000000 0.000000
vt 36.640857 100.000000 0.000000
vt 0.000000 0.000000 0.000000
vt 42.181955 0.000000 0.000000
vt 0.000000 100.000000 0.000000
vt 42.181955 100.000000 0.000000
vt 0.000000 0.000000 0.000000
vt 36.640857 0.000000 0.000000
vt 0.000000 100.000000 0.000000
vt 36.640857 100.000000 0.000000
vt 0.000000 0.000000 0.000000
vt 42.181955 0.000000 0.000000
vt 0.000000 100.000000 0.000000
vt 42.181955 100.000000 0.000000
vt -18.320429 -21.090978 0.000000
vt 18.320429 -21.090978 0.000000
vt -18.320429 21.090978 0.000000
vt 18.320429 21.090978 0.000000
vt 18.320429 21.090978 0.000000
vt -18.320429 21.090978 0.000000
vt 18.320429 -21.090978 0.000000
vt -18.320429 -21.090978 0.000000
vn 0.000000 100.000000 0.000000
vn 0.000000 100.000000 0.000000
vn 0.000000 100.000000 0.000000
vn 0.000000 100.000000 0.000000
vn 100.000000 0.000000 0.000000
vn 100.000000 0.000000 0.000000
vn 100.000000 0.000000 0.000000
vn 100.000000 0.000000 0.000000
vn 0.000000 -100.000000 0.000000
vn 0.000000 -100.000000 0.000000
vn 0.000000 -100.000000 0.000000
vn 0.000000 -100.000000 0.000000
vn -100.000000 0.000000 0.000000
vn -100.000000 0.000000 0.000000
vn -100.000000 0.000000 0.000000
vn -100.000000 0.000000 0.000000
vn 0.000000 0.000000 100.000000
vn 0.000000 0.000000 100.000000
vn 0.000000 0.000000 100.000000
vn 0.000000 0.000000 100.000000
vn 0.000000 0.000000 -100.000000
vn 0.000000 0.000000 -100.000000
vn 0.000000 0.000000 -100.000000
vn 0.000000 0.000000 -100.000000
f 175/363/359 176/364/360 178/365/361
f 178/365/361 176/364/360 177/366/362
f 179/367/363 175/368/364 180/369/365
f 180/369/365 175/368/364 178/370/366
f 181/371/367 179/372/368 182/373/369
f 182/373/369 179/372/368 180/374/370
f 176/375/371 181/376/372 177/377/373
f 177/377/373 181/376/372 182/378/374
f 182/379/375 180/380/376 177/381/377
f 177/381/377 180/380/376 178/382/378
f 176/383/379 175/384/380 181/385/381
f 181/385/381 175/384/380 179/386/382
g Corpo5

v 3.198165 -1.000000 0.500000
v 3.203620 -0.942877 0.500000
v 3.219786 -0.887819 0.500000
v 3.246080 -0.836816 0.500000
v 3.281552 -0.791710 0.500000
v 3.324919 -0.754133 0.500000
v 3.374613 -0.725441 0.500000
v 3.428840 -0.706673 0.500000
v 3.485638 -0.698507 0.500000
v 3.542956 -0.701237 0.500000
v 3.598721 -0.714766 0.500000
v 3.650917 -0.738603 0.500000
v 3.697660 -0.771888 0.500000
v 3.737258 -0.813418 0.500000
v 3.768282 -0.861691 0.500000
v 3.789608 -0.914963 0.500000
v 3.800468 -0.971309 0.500000
v 3.800468 -1.028691 0.500000
v 3.789608 -1.085037 0.500000
v 3.768282 -1.138309 0.500000
v 3.737258 -1.186582 0.500000
v 3.697660 -1.228112 0.500000
v 3.650917 -1.261397 0.500000
v 3.598721 -1.285234 0.500000
v 3.542956 -1.298763 0.500000
v 3.485638 -1.301493 0.500000
v 3.428840 -1.293327 0.500000
v 3.374613 -1.274559 0.500000
v 3.324919 -1.245867 0.500000
v 3.281552 -1.208290 0.500000
v 3.246080 -1.163184 0.500000
v 3.219786 -1.112181 0.500000
v 3.203620 -1.057123 0.500000
v 3.198165 -1.000000 0.000000
v 3.203620 -1.057123 0.000000
v 3.219786 -1.112181 0.000000
v 3.246080 -1.163184 0.000000
v 3.281552 -1.208290 0.000000
v 3.324919 -1.245867 0.000000
v 3.374613 -1.274559 0.000000
v 3.428840 -1.293327 0.000000
v 3.485638 -1.301493 0.000000
v 3.542956 -1.298763 0.000000
v 3.598721 -1.285234 0.000000
v 3.650917 -1.261397 0.000000
v 3.697660 -1.228112 0.000000
v 3.737258 -1.186582 0.000000
v 3.768282 -1.138309 0.000000
v 3.789608 -1.085037 0.000000
v 3.800468 -1.028691 0.000000
v 3.800468 -0.971309 0.000000
v 3.789608 -0.914963 0.000000
v 3.768282 -0.861691 0.000000
v 3.737258 -0.813418 0.000000
v 3.697660 -0.771888 0.000000
v 3.650917 -0.738603 0.000000
v 3.598721 -0.714766 0.000000
v 3.542956 -0.701237 0.000000
v 3.485638 -0.698507 0.000000
v 3.428840 -0.706673 0.000000
v 3.374613 -0.725441 0.000000
v 3.324919 -0.754133 0.000000
v 3.281552 -0.791710 0.000000
v 3.246080 -0.836816 0.000000
v 3.219786 -0.887819 0.000000
v 3.203620 -0.942877 0.000000
vt -50.000000 89.077306 0.000000
vt -0.000000 89.077306 0.000000
vt -50.000000 94.824229 0.000000
vt -0.000000 94.824229 0.000000
vt -50.000000 -94.824229 0.000000
vt -0.000000 -94.824229 0.000000
vt -50.000000 -89.077306 0.000000
vt -0.000000 -89.077306 0.000000
vt -50.000000 -83.330383 0.000000
vt -0.000000 -83.330383 0.000000
vt -50.000000 -77.583460 0.000000
vt -0.000000 -77.583460 0.000000
vt -50.000000 -71.836537 0.000000
vt -0.000000 -71.836537 0.000000
vt -50.000000 -66.089614 0.000000
vt -0.000000 -66.089614 0.000000
vt -50.000000 -60.342691 0.000000
vt -0.000000 -60.342691 0.000000
vt -50.000000 -54.595768 0.000000
vt -0.000000 -54.595768 0.000000
vt -50.000000 -48.848845 0.000000
vt -0.000000 -48.848845 0.000000
vt -50.000000 -43.101922 0.000000
vt -0.000000 -43.101922 0.000000
vt -50.000000 -37.354999 0.000000
vt -0.000000 -37.354999 0.000000
vt -50.000000 -31.608076 0.000000
vt -0.000000 -31.608076 0.000000
vt -50.000000 -25.861153 0.000000
vt -0.000000 -25.861153 0.000000
vt -50.000000 -20.114230 0.000000
vt -0.000000 -20.114230 0.000000
vt -50.000000 -14.367307 0.000000
vt -0.000000 -14.367307 0.000000
vt -50.000000 -8.620384 0.000000
vt -0.000000 -8.620384 0.000000
vt -50.000000 -2.873461 0.000000
vt -0.000000 -2.873461 0.000000
vt -50.000000 2.873461 0.000000
vt -0.000000 2.873461 0.000000
vt -50.000000 8.620384 0.000000
vt -0.000000 8.620384 0.000000
vt -50.000000 14.367307 0.000000
vt -0.000000 14.367307 0.000000
vt -50.000000 20.114230 0.000000
vt -0.000000 20.114230 0.000000
vt -50.000000 25.861153 0.000000
vt -0.000000 25.861153 0.000000
vt -50.000000 31.608076 0.000000
vt -0.000000 31.608076 0.000000
vt -50.000000 37.354999 0.000000
vt -0.000000 37.354999 0.000000
vt -50.000000 43.101922 0.000000
vt -0.000000 43.101922 0.000000
vt -50.000000 48.848845 0.000000
vt -0.000000 48.848845 0.000000
vt -50.000000 54.595768 0.000000
vt -0.000000 54.595768 0.000000
vt -50.000000 60.342691 0.000000
vt -0.000000 60.342691 0.000000
vt -50.000000 66.089614 0.000000
vt -0.000000 66.089614 0.000000
vt -50.000000 71.836537 0.000000
vt -0.000000 71.836537 0.000000
vt -50.000000 77.583460 0.000000
vt -0.000000 77.583460 0.000000
vt -50.000000 83.330383 0.000000
vt -0.000000 83.330383 0.000000
vt -29.638035 5.712263 0.000000
vt -30.183490 0.000000 0.000000
vt 19.765982 -22.811159 0.000000
vt -29.638035 -5.712263 0.000000
vt -28.021384 -11.218070 0.000000
vt -25.391967 -16.318426 0.000000
vt -21.844819 -20.828993 0.000000
vt -17.508142 -24.586745 0.000000
vt 15.091745 -26.139669 0.000000
vt -12.538675 -27.455868 0.000000
vt 9.872052 -28.523422 0.000000
vt -7.116027 -29.332664 0.000000
vt 4.295558 -29.876265 0.000000
vt -1.436188 -30.149302 0.000000
vt 23.725825 -18.658195 0.000000
vt -28.021384 11.218070 0.000000
vt -25.391967 16.318426 0.000000
vt -21.844819 20.828993 0.000000
vt -17.508142 24.586745 0.000000
vt -12.538675 27.455868 0.000000
vt -7.116027 29.332664 0.000000
vt -1.436188 30.149302 0.000000
vt 4.295558 29.876265 0.000000
vt 9.872052 28.523422 0.000000
vt 15.091745 26.139669 0.000000
vt 19.765982 22.811159 0.000000
vt 23.725825 18.658195 0.000000
vt 26.828156 -13.830875 0.000000
vt 26.828156 13.830875 0.000000
vt 28.960846 -8.503672 0.000000
vt 28.960846 8.503672 0.000000
vt 30.046816 -2.869123 0.000000
vt 30.046816 2.869123 0.000000
vt 29.638035 -5.712263 0.000000
vt 30.183490 0.000000 0.000000
vt -19.765982 -22.811159 0.000000
vt 29.638035 5.712263 0.000000
vt -23.725825 -18.658195 0.000000
vt 28.021384 11.218070 0.000000
vt 25.391967 16.318426 0.000000
vt 21.844819 20.828993 0.000000
vt 17.508142 24.586745 0.000000
vt 12.538675 27.455868 0.000000
vt 7.116027 29.332664 0.000000
vt 1.436188 30.149302 0.000000
vt -4.295558 29.876265 0.000000
vt -9.872052 28.523422 0.000000
vt -15.091745 26.139669 0.000000
vt -19.765982 22.811159 0.000000
vt -23.725825 18.658195 0.000000
vt -26.828156 -13.830875 0.000000
vt -26.828156 13.830875 0.000000
vt -28.960846 -8.503672 0.000000
vt -28.960846 8.503672 0.000000
vt -30.046816 -2.869123 0.000000
vt -30.046816 2.869123 0.000000
vt -15.091745 -26.139669 0.000000
vt 17.508142 -24.586745 0.000000
vt 21.844819 -20.828993 0.000000
vt 25.391967 -16.318426 0.000000
vt 12.538675 -27.455868 0.000000
vt -9.872052 -28.523422 0.000000
vt 7.116027 -29.332664 0.000000
vt -4.295558 -29.876265 0.000000
vt 1.436188 -30.149302 0.000000
vt 28.021384 -11.218070 0.000000
vn -98.192870 18.925124 -0.000000
vn -98.192870 18.925124 -0.000000
vn -100.000000 0.000000 -0.000000
vn -100.000000 0.000000 -0.000000
vn -98.192870 -18.925124 0.000000
vn -98.192870 -18.925124 0.000000
vn -92.836793 -37.166246 0.000000
vn -92.836793 -37.166246 0.000000
vn -84.125353 -54.064082 0.000000
vn -84.125353 -54.064082 0.000000
vn -72.373404 -69.007901 0.000000
vn -72.373404 -69.007901 0.000000
vn -58.005691 -81.457595 0.000000
vn -58.005691 -81.457595 0.000000
vn -41.541501 -90.963200 0.000000
vn -41.541501 -90.963200 0.000000
vn -23.575894 -97.181157 0.000000
vn -23.575894 -97.181157 0.000000
vn -4.758192 -99.886734 0.000000
vn -4.758192 -99.886734 0.000000
vn 14.231484 -98.982144 0.000000
vn 14.231484 -98.982144 0.000000
vn 32.706796 -94.500082 0.000000
vn 32.706796 -94.500082 0.000000
vn 50.000000 -86.602540 0.000000
vn 50.000000 -86.602540 0.000000
vn 65.486073 -75.574957 0.000000
vn 65.486073 -75.574957 0.000000
vn 78.605309 -61.815899 0.000000
vn 78.605309 -61.815899 0.000000
vn 88.883545 -45.822652 0.000000
vn 88.883545 -45.822652 0.000000
vn 95.949297 -28.173256 0.000000
vn 95.949297 -28.173256 0.000000
vn 99.547192 -9.505604 0.000000
vn 99.547192 -9.505604 0.000000
vn 99.547192 9.505604 0.000000
vn 99.547192 9.505604 0.000000
vn 95.949297 28.173256 0.000000
vn 95.949297 28.173256 0.000000
vn 88.883545 45.822652 0.000000
vn 88.883545 45.822652 0.000000
vn 78.605309 61.815899 0.000000
vn 78.605309 61.815899 0.000000
vn 65.486073 75.574957 0.000000
vn 65.486073 75.574957 0.000000
vn 50.000000 86.602540 0.000000
vn 50.000000 86.602540 0.000000
vn 32.706796 94.500082 0.000000
vn 32.706796 94.500082 0.000000
vn 14.231484 98.982144 0.000000
vn 14.231484 98.982144 0.000000
vn -4.758192 99.886734 -0.000000
vn -4.758192 99.886734 -0.000000
vn -23.575894 97.181157 -0.000000
vn -23.575894 97.181157 -0.000000
vn -41.541501 90.963200 -0.000000
vn -41.541501 90.963200 -0.000000
vn -58.005691 81.457595 -0.000000
vn -58.005691 81.457595 -0.000000
vn -72.373404 69.007901 -0.000000
vn -72.373404 69.007901 -0.000000
vn -84.125353 54.064082 -0.000000
vn -84.125353 54.064082 -0.000000
vn -92.836793 37.166246 -0.000000
vn -92.836793 37.166246 -0.000000
vn 0.000000 0.000000 100.000000
vn 0.000000 0.000000 100.000000
vn 0.000000 0.000000 100.000000
vn 0.000000 0.000000 100.000000
vn 0.000000 0.000000 100.000000
vn 0.000000 0.000000 100.000000
vn 0.000000 0.000000 100.000000
vn 0.000000 0.000000 100.000000
vn 0.000000 0.000000 100.000000
vn 0.000000 0.000000 100.000000
vn 0.000000 0.000000 100.000000
vn 0.000000 0.000000 100.000000
vn 0.000000 0.000000 100.000000
vn 0.000000 0.000000 100.000000
vn 0.000000 0.000000 100.000000
vn 0.000000 0.000000 100.000000
vn 0.000000 0.000000 100.000000
vn 0.000000 0.000000 100.000000
vn 0.000000 0.000000 100.000000
vn 0.000000 0.000000 100.000000
vn 0.000000 0.000000 100.000000
vn 0.000000 0.000000 100.000000
vn 0.000000 0.000000 100.000000
vn 0.000000 0.000000 100.000000
vn 0.000000 0.000000 100.000000
vn 0.000000 0.000000 100.000000
vn 0.000000 0.000000 100.000000
vn 0.000000 0.000000 100.000000
vn 0.000000 0.000000 100.000000
vn 0.000000 0.000000 100.000000
vn 0.000000 0.000000 100.000000
vn 0.000000 0.000000 100.000000
vn 0.000000 0.000000 100.000000
vn 0.000000 0.000000 -100.000000
vn 0.000000 0.000000 -100.000000
vn 0.000000 0.000000 -100.000000
vn 0.000000 0.000000 -100.000000
vn 0.000000 0.000000 -100.000000
vn 0.000000 0.000000 -100.000000
vn 0.000000 0.000000 -100.000000
vn 0.000000 0.000000 -100.000000
vn 0.000000 0.000000 -100.000000
vn 0.000000 0.000000 -100.000000
vn 0.000000 0.000000 -100.000000
vn 0.000000 0.000000 -100.000000
vn 0.000000 0.000000 -100.000000
vn 0.000000 0.000000 -100.000000
vn 0.000000 0.000000 -100.000000
vn 0.000000 0.000000 -100.000000
vn 0.000000 0.000000 -100.000000
vn 0.000000 0.000000 -100.000000
vn 0.000000 0.000000 -100.000000
vn 0.000000 0.000000 -100.000000
vn 0.000000 0.000000 -100.000000
vn 0.000000 0.000000 -100.000000
vn 0.000000 0.000000 -100.000000
vn 0.000000 0.000000 -100.000000
vn 0.000000 0.000000 -100.000000
vn 0.000000 0.000000 -100.000000
vn 0.000000 0.000000 -100.000000
vn 0.000000 0.000000 -100.000000
vn 0.000000 0.000000 -100.000000
vn 0.000000 0.000000 -100.000000
vn 0.000000 0.000000 -100.000000
vn 0.000000 0.000000 -100.000000
vn 0.000000 0.000000 -100.000000
f 184/387/383 248/388/384 183/389/385
f 183/389/385 248/388/384 216/390/386
f 183/391/385 216/392/386 215/393/387
f 215/393/387 216/392/386 217/394/388
f 215/393/387 217/394/388 214/395/389
f 214/395/389 217/394/388 218/396/390
f 214/395/389 218/396/390 213/397/391
f 213/397/391 218/396/390 219/398/392
f 213/397/391 219/398/392 212/399/393
f 212/399/393 219/398/392 220/400/394
f 212/399/393 220/400/394 211/401/395
f 211/401/395 220/400/394 221/402/396
f 211/401/395 221/402/396 210/403/397
f 210/403/397 221/402/396 222/404/398
f 210/403/397 222/404/398 209/405/399
f 209/405/399 222/404/398 223/406/400
f 209/405/399 223/406/400 208/407/401
f 208/407/401 223/406/400 224/408/402
f 208/407/401 224/408/402 207/409/403
f 207/409/403 224/408/402 225/410/404
f 207/409/403 225/410/404 206/411/405
f 206/411/405 225/410/404 226/412/406
f 206/411/405 226/412/406 205/413/407
f 205/413/407 226/412/406 227/414/408
f 205/413/407 227/414/408 204/415/409
f 204/415/409 227/414/408 228/416/410
f 204/415/409 228/416/410 203/417/411
f 203/417/411 228/416/410 229/418/412
f 203/417/411 229/418/412 202/419/413
f 202/419/413 229/418/412 230/420/414
f 202/419/413 230/420/414 201/421/415
f 201/421/415 230/420/414 231/422/416
f 201/421/415 231/422/416 200/423/417
f 200/423/417 231/422/416 232/424/418
f 200/423/417 232/424/418 199/425/419
f 199/425/419 232/424/418 233/426/420
f 199/425/419 233/426/420 198/427/421
f 198/427/421 233/426/420 234/428/422
f 198/427/421 234/428/422 197/429/423
f 197/429/423 234/428/422 235/430/424
f 197/429/423 235/430/424 196/431/425
f 196/431/425 235/430/424 236/432/426
f 196/431/425 236/432/426 195/433/427
f 195/433/427 236/432/426 237/434/428
f 195/433/427 237/434/428 194/435/429
f 194/435/429 237/434/428 238/436/430
f 194/435/429 238/436/430 193/437/431
f 193/437/431 238/436/430 239/438/432
f 193/437/431 239/438/432 192/439/433
f 192/439/433 239/438/432 240/440/434
f 192/439/433 240/440/434 191/441/435
f 191/441/435 240/440/434 241/442/436
f 191/441/435 241/442/436 190/443/437
f 190/443/437 241/442/436 242/444/438
f 190/443/437 242/444/438 189/445/439
f 189/445/439 242/444/438 243/446/440
f 189/445/439 243/446/440 188/447/441
f 188/447/441 243/446/440 244/448/442
f 188/447/441 244/448/442 187/449/443
f 187/449/443 244/448/442 245/450/444
f 187/449/443 245/450/444 186/451/445
f 186/451/445 245/450/444 246/452/446
f 186/451/445 246/452/446 185/453/447
f 185/453/447 246/452/446 247/454/448
f 185/453/447 247/454/448 184/387/383
f 184/387/383 247/454/448 248/388/384
f 184/455/449 183/456/450 204/457/451
f 204/457/451 183/456/450 215/458/452
f 204/457/451 215/458/452 214/459/453
f 214/459/453 213/460/454 204/457/451
f 204/457/451 213/460/454 212/461/455
f 204/457/451 212/461/455 211/462/456
f 204/457/451 211/462/456 205/463/457
f 205/463/457 211/462/456 210/464/458
f 205/463/457 210/464/458 206/465/459
f 206/465/459 210/464/458 209/466/460
f 206/465/459 209/466/460 207/467/461
f 207/467/461 209/466/460 208/468/462
f 204/457/451 203/469/463 184/455/449
f 184/455/449 203/469/463 185/470/464
f 185/470/464 203/469/463 186/471/465
f 186/471/465 203/469/463 187/472/466
f 187/472/466 203/469/463 188/473/467
f 188/473/467 203/469/463 189/474/468
f 189/474/468 203/469/463 190/475/469
f 190/475/469 203/469/463 191/476/470
f 191/476/470 203/469/463 192/477/471
f 192/477/471 203/469/463 193/478/472
f 193/478/472 203/469/463 194/479/473
f 194/479/473 203/469/463 195/480/474
f 195/480/474 203/469/463 196/481/475
f 196/481/475 203/469/463 202/482/476
f 196/481/475 202/482/476 197/483/477
f 197/483/477 202/482/476 201/484/478
f 197/483/477 201/484/478 198/485/479
f 198/485/479 201/484/478 200/486/480
f 198/485/479 200/486/480 199/487/481
f 217/488/482 216/489/483 228/490/484
f 228/490/484 216/489/483 248/491/485
f 228/490/484 248/491/485 229/492/486
f 229/492/486 248/491/485 247/493/487
f 229/492/486 247/493/487 246/494/488
f 246/494/488 245/495/489 229/492/486
f 229/492/486 245/495/489 244/496/490
f 229/492/486 244/496/490 243/497/491
f 243/497/491 242/498/492 229/492/486
f 229/492/486 242/498/492 241/499/493
f 229/492/486 241/499/493 240/500/494
f 240/500/494 239/501/495 229/492/486
f 229/492/486 239/501/495 238/502/496
f 229/492/486 238/502/496 237/503/497
f 237/503/497 236/504/498 229/492/486
f 229/492/486 236/504/498 230/505/499
f 230/505/499 236/504/498 235/506/500
f 230/505/499 235/506/500 231/507/501
f 231/507/501 235/506/500 234/508/502
f 231/507/501 234/508/502 232/509/503
f 232/509/503 234/508/502 233/510/504
f 227/511/505 221/512/506 228/490/484
f 228/490/484 221/512/506 220/513/507
f 228/490/484 220/513/507 219/514/508
f 221/512/506 227/511/505 222/515/509
f 222/515/509 227/511/505 226/516/510
f 222/515/509 226/516/510 223/517/511
f 223/517/511 226/516/510 225/518/512
f 223/517/511 225/518/512 224/519/513
f 219/514/508 218/520/514 228/490/484
f 228/490/484 218/520/514 217/488/482
g Corpo6

v -1.500000 -1.000000 0.000000
v -1.500000 -1.500000 0.000000
v -1.500000 -1.500000 0.500000
v -1.500000 -1.000000 0.500000
v -1.000000 -1.000000 0.000000
v -1.000000 -1.000000 0.500000
v -1.000000 -1.500000 0.000000
v -1.000000 -1.500000 0.500000
vt -0.000000 0.000000 0.000000
vt 50.000000 0.000000 0.000000
vt -0.000000 50.000000 0.000000
vt 50.000000 50.000000 0.000000
vt -0.000000 0.000000 0.000000
vt 50.000000 0.000000 0.000000
vt -0.000000 50.000000 0.000000
vt 50.000000 50.000000 0.000000
vt 0.000000 0.000000 0.000000
vt 50.000000 0.000000 0.000000
vt 0.000000 50.000000 0.000000
vt 50.000000 50.000000 0.000000
vt 0.000000 0.000000 0.000000
vt 50.000000 0.000000 0.000000
vt 0.000000 50.000000 0.000000
vt 50.000000 50.000000 0.000000
vt -25.000000 -25.000000 0.000000
vt 25.000000 -25.000000 0.000000
vt -25.000000 25.000000 0.000000
vt 25.000000 25.000000 0.000000
vt -25.000000 -25.000000 0.000000
vt 25.000000 -25.000000 0.000000
vt -25.000000 25.000000 0.000000
vt 25.000000 25.000000 0.000000
vn -100.000000 0.000000 0.000000
vn -100.000000 0.000000 0.000000
vn -100.000000 0.000000 0.000000
vn -100.000000 0.000000 0.000000
vn 0.000000 100.000000 0.000000
vn 0.000000 100.000000 0.000000
vn 0.000000 100.000000 0.000000
vn 0.000000 100.000000 0.000000
vn 100.000000 0.000000 0.000000
vn 100.000000 0.000000 0.000000
vn 100.000000 0.000000 0.000000
vn 100.000000 0.000000 0.000000
vn 0.000000 -100.000000 0.000000
vn 0.000000 -100.000000 0.000000
vn 0.000000 -100.000000 0.000000
vn 0.000000 -100.000000 0.000000
vn 0.000000 0.000000 100.000000
vn 0.000000 0.000000 100.000000
vn 0.000000 0.000000 100.000000
vn 0.000000 0.000000 100.000000
vn -0.000000 0.000000 -100.000000
vn -0.000000 0.000000 -100.000000
vn -0.000000 0.000000 -100.000000
vn -0.000000 0.000000 -100.000000
f 249/521/515 250/522/516 252/523/517
f 252/523/517 250/522/516 251/524/518
f 253/525/519 249/526/520 254/527/521
f 254/527/521 249/526/520 252/528/522
f 255/529/523 253/530/524 256/531/525
f 256/531/525 253/530/524 254/532/526
f 250/533/527 255/534/528 251/535/529
f 251/535/529 255/534/528 256/536/530
f 251/537/531 256/538/532 252/539/533
f 252/539/533 256/538/532 254/540/534
f 255/541/535 250/542/536 253/543/537
f 253/543/537 250/542/536 249/544/538
# 256 vertices
# 544 texture params
# 538 normals
# 492 facets

# 6 groups
